UniOl.ufo
<glyph name="exclam" format="2">
  <advance width="224"/>
  <unicode hex="0021"/>
  <outline>
    <contour>
      <point x="187" y="607.6" type="qcurve" smooth="yes"/>
      <point x="160" y="-73.4004" type="line"/>
      <point x="96.4004" y="-73.4004" type="line"/>
      <point x="59.2002" y="599.2" type="line" smooth="yes"/>
      <point x="59.2002" y="633.4"/>
      <point x="98.7998" y="676.6"/>
      <point x="125.8" y="676.6" type="qcurve" smooth="yes"/>
      <point x="151.6" y="676.6"/>
      <point x="187" y="639.4"/>
    </contour>
    <contour>
      <point x="194.8" y="-225.8" type="qcurve" smooth="yes"/>
      <point x="194.8" y="-256.4"/>
      <point x="160" y="-299.6"/>
      <point x="130.6" y="-299.6" type="qcurve" smooth="yes"/>
      <point x="96.4004" y="-299.6"/>
      <point x="61.5996" y="-256.4"/>
      <point x="61.5996" y="-225.8" type="qcurve" smooth="yes"/>
      <point x="61.5996" y="-150.8"/>
      <point x="130.6" y="-150.8" type="qcurve" smooth="yes"/>
      <point x="157.6" y="-150.8"/>
      <point x="194.8" y="-196.4"/>
    </contour>
  </outline>
</glyph>
<glyph name="quotedbl" format="2">
  <advance width="347"/>
  <unicode hex="0022"/>
  <outline>
    <contour>
      <point x="172.2" y="728.6" type="line"/>
      <point x="111" y="569" type="line"/>
      <point x="178.2" y="482.6" type="line"/>
      <point x="221.4" y="569" type="line"/>
      <point x="172.2" y="733.4" type="line"/>
    </contour>
    <contour>
      <point x="319.8" y="728.6" type="line"/>
      <point x="258" y="569" type="line"/>
      <point x="325.8" y="482.6" type="line"/>
      <point x="369" y="569" type="line"/>
      <point x="319.8" y="733.4" type="line"/>
    </contour>
  </outline>
</glyph>
<glyph name="numbersign" format="2">
  <advance width="879"/>
  <unicode hex="0023"/>
  <outline>
    <contour>
      <point x="463" y="504" type="line"/>
      <point x="385" y="318" type="line"/>
      <point x="205" y="318" type="line"/>
      <point x="193" y="270" type="line"/>
      <point x="361" y="270" type="line"/>
      <point x="301" y="150" type="line"/>
      <point x="199" y="150" type="line"/>
      <point x="205" y="90" type="line"/>
      <point x="271" y="90" type="line"/>
      <point x="193" y="-102" type="line"/>
      <point x="253" y="-102" type="line"/>
      <point x="325" y="72" type="line"/>
      <point x="487" y="72" type="line"/>
      <point x="385" y="-96" type="line"/>
      <point x="457" y="-114" type="line"/>
      <point x="559" y="72" type="line"/>
      <point x="679" y="72" type="line"/>
      <point x="679" y="144" type="line"/>
      <point x="607" y="138" type="line"/>
      <point x="667" y="252" type="line"/>
      <point x="775" y="258" type="line"/>
      <point x="787" y="324" type="line"/>
      <point x="685" y="324" type="line"/>
      <point x="745" y="498" type="line"/>
      <point x="679" y="504" type="line"/>
      <point x="619" y="336" type="line"/>
      <point x="445" y="330" type="line"/>
      <point x="511" y="492" type="line"/>
    </contour>
    <contour>
      <point x="445" y="276" type="line"/>
      <point x="589" y="282"/>
      <point x="595" y="270" type="qcurve"/>
      <point x="535" y="144" type="line"/>
      <point x="373" y="144" type="line"/>
    </contour>
  </outline>
</glyph>
<glyph name="dollar" format="2">
  <advance width="853"/>
  <unicode hex="0024"/>
  <outline>
    <contour>
      <point x="535" y="618.25" type="line"/>
      <point x="595" y="618.25" type="line"/>
      <point x="595" y="562.75" type="line"/>
      <point x="723" y="553.75"/>
      <point x="771.5" y="459.75" type="qcurve" smooth="yes"/>
      <point x="794" y="417.75"/>
      <point x="794" y="361.25" type="qcurve"/>
      <point x="713" y="361.25" type="line"/>
      <point x="712" y="440.25"/>
      <point x="653.5" y="474.75" type="qcurve" smooth="yes"/>
      <point x="629.5" y="489.25"/>
      <point x="595" y="491.25" type="qcurve"/>
      <point x="595" y="236.25" type="line"/>
      <point x="684.5" y="212.75"/>
      <point x="729.5" y="187.25" type="qcurve" smooth="yes"/>
      <point x="815.5" y="137.75"/>
      <point x="816.5" y="29.25" type="qcurve"/>
      <point x="813" y="-99.75"/>
      <point x="722" y="-157.75" type="qcurve" smooth="yes"/>
      <point x="672" y="-187.75"/>
      <point x="595" y="-193.75" type="qcurve"/>
      <point x="595" y="-299.25" type="line"/>
      <point x="535" y="-299.25" type="line"/>
      <point x="535" y="-193.75" type="line"/>
      <point x="377" y="-183.75"/>
      <point x="333" y="-63.75" type="qcurve" smooth="yes"/>
      <point x="319.5" y="-25.25"/>
      <point x="319.5" y="21.75" type="qcurve" smooth="yes"/>
      <point x="319.5" y="27.75"/>
      <point x="319.5" y="33.75" type="qcurve" smooth="yes"/>
      <point x="319.5" y="38.25"/>
      <point x="320" y="42.75" type="qcurve"/>
      <point x="400.5" y="42.75" type="line"/>
      <point x="404" y="15.25" type="line" smooth="yes"/>
      <point x="410" y="-45.75"/>
      <point x="426.5" y="-64.75" type="qcurve"/>
      <point x="462" y="-113.75"/>
      <point x="535" y="-123.25" type="qcurve"/>
      <point x="535" y="155.25" type="line"/>
      <point x="439.5" y="184.25"/>
      <point x="406" y="208.75" type="qcurve" smooth="yes"/>
      <point x="333" y="260.75"/>
      <point x="333" y="358.25" type="qcurve" smooth="yes"/>
      <point x="333" y="507.75"/>
      <point x="476.5" y="550.75" type="qcurve" smooth="yes"/>
      <point x="503" y="558.75"/>
      <point x="535" y="562.75" type="qcurve"/>
    </contour>
    <contour>
      <point x="535" y="244.25" type="qcurve"/>
      <point x="535" y="490.25" type="line"/>
      <point x="436.5" y="476.75"/>
      <point x="419" y="399.25" type="qcurve"/>
      <point x="416" y="368.25" type="line"/>
      <point x="416" y="276.25"/>
    </contour>
    <contour>
      <point x="595" y="146.25" type="qcurve"/>
      <point x="595" y="-123.25" type="line"/>
      <point x="657.5" y="-115.75"/>
      <point x="689.5" y="-85.25" type="qcurve" smooth="yes"/>
      <point x="732.5" y="-44.25"/>
      <point x="732.5" y="17.25" type="qcurve" smooth="yes"/>
      <point x="732.5" y="79.75"/>
      <point x="684.5" y="110.25" type="qcurve" smooth="yes"/>
      <point x="654.5" y="128.75"/>
    </contour>
  </outline>
</glyph>
<glyph name="percent" format="2">
  <advance width="698"/>
  <unicode hex="0025"/>
  <outline>
    <contour>
      <point x="294.2" y="-277.8" type="line"/>
      <point x="243.8" y="-226.2" type="line"/>
      <point x="681.8" y="584.4" type="line"/>
      <point x="732.2" y="532.8" type="line"/>
    </contour>
    <contour>
      <point x="353" y="513.6"/>
      <point x="337.4" y="513.6" type="qcurve" smooth="yes"/>
      <point x="319.4" y="513.6"/>
      <point x="300.8" y="481.2"/>
      <point x="300.8" y="459" type="qcurve" smooth="yes"/>
      <point x="300.8" y="437.4"/>
      <point x="319.4" y="406.2"/>
      <point x="337.4" y="406.2" type="qcurve" smooth="yes"/>
      <point x="353" y="406.2"/>
      <point x="372.2" y="440.4"/>
      <point x="372.2" y="459" type="qcurve" smooth="yes"/>
      <point x="372.2" y="482.4"/>
    </contour>
    <contour>
      <point x="424.4" y="456" type="qcurve" smooth="yes"/>
      <point x="424.4" y="409.8"/>
      <point x="378.8" y="328.2"/>
      <point x="341" y="328.2" type="qcurve" smooth="yes"/>
      <point x="298.4" y="328.2"/>
      <point x="252.8" y="403.2"/>
      <point x="252.8" y="456" type="qcurve" smooth="yes"/>
      <point x="252.8" y="508.2"/>
      <point x="298.4" y="586.8"/>
      <point x="341" y="586.8" type="qcurve" smooth="yes"/>
      <point x="378.8" y="586.8"/>
      <point x="424.4" y="511.8"/>
    </contour>
    <contour>
      <point x="636.8" y="-44.4004"/>
      <point x="621.2" y="-44.4004" type="qcurve" smooth="yes"/>
      <point x="603.2" y="-44.4004"/>
      <point x="584.6" y="-76.7998"/>
      <point x="584.6" y="-99" type="qcurve" smooth="yes"/>
      <point x="584.6" y="-120.6"/>
      <point x="603.2" y="-151.8"/>
      <point x="621.2" y="-151.8" type="qcurve" smooth="yes"/>
      <point x="636.8" y="-151.8"/>
      <point x="655.4" y="-117.6"/>
      <point x="655.4" y="-99" type="qcurve" smooth="yes"/>
      <point x="655.4" y="-75.5996"/>
    </contour>
    <contour>
      <point x="707.6" y="-96" type="qcurve" smooth="yes"/>
      <point x="707.6" y="-142.2"/>
      <point x="662.6" y="-223.8"/>
      <point x="624.2" y="-223.8" type="qcurve" smooth="yes"/>
      <point x="581.6" y="-223.8"/>
      <point x="536.6" y="-148.8"/>
      <point x="536.6" y="-96" type="qcurve" smooth="yes"/>
      <point x="536.6" y="-43.7998"/>
      <point x="581.6" y="34.7998"/>
      <point x="624.2" y="34.7998" type="qcurve" smooth="yes"/>
      <point x="662.6" y="34.7998"/>
      <point x="707.6" y="-40.2002"/>
    </contour>
  </outline>
</glyph>
<glyph name="ampersand" format="2">
  <advance width="977"/>
  <unicode hex="0026"/>
  <outline>
    <contour>
      <point x="657" y="-248.318" type="qcurve"/>
      <point x="423" y="-284.318"/>
      <point x="279" y="-20.3184" type="qcurve"/>
      <point x="276" y="132.682" type="line"/>
      <point x="408" y="294.682" type="line"/>
      <point x="441" y="360.682" type="line"/>
      <point x="441" y="480.682" type="line"/>
      <point x="285" y="525.682"/>
      <point x="279" y="615.682" type="qcurve"/>
      <point x="273" y="873.682"/>
      <point x="555" y="810.682" type="qcurve"/>
      <point x="780" y="768.682"/>
      <point x="693" y="444.682" type="qcurve"/>
      <point x="603" y="465.682" type="line"/>
      <point x="705" y="717.682"/>
      <point x="555" y="753.682" type="qcurve"/>
      <point x="300" y="846.682"/>
      <point x="351" y="627.682" type="qcurve"/>
      <point x="354" y="555.682"/>
      <point x="528" y="492.682" type="qcurve"/>
      <point x="507" y="288.682" type="line"/>
      <point x="488.4" y="287.481" type="line"/>
      <point x="336" y="108.682"/>
      <point x="339" y="-14.3184" type="qcurve"/>
      <point x="492" y="-236.318"/>
      <point x="705" y="-122.318" type="qcurve"/>
      <point x="873.6" y="288.682" type="line"/>
      <point x="777.6" y="309.682" type="line"/>
      <point x="591" y="117.682" type="line"/>
      <point x="591" y="174.682" type="line"/>
      <point x="765.6" y="423.682" type="line"/>
      <point x="990" y="300.682" type="line"/>
      <point x="777" y="-155.318"/>
    </contour>
  </outline>
</glyph>
<glyph name="quotesingle" format="2">
  <advance width="328"/>
  <unicode hex="0027"/>
  <outline>
    <contour>
      <point x="183" y="958.6" type="line"/>
      <point x="121.8" y="799" type="line"/>
      <point x="189" y="712.6" type="line"/>
      <point x="232.2" y="799" type="line"/>
      <point x="183" y="963.4" type="line"/>
    </contour>
  </outline>
</glyph>
<glyph name="parenleft" format="2">
  <advance width="711"/>
  <unicode hex="0028"/>
  <outline>
    <contour>
      <point x="403.4" y="-58.7998" type="qcurve"/>
      <point x="361.4" y="-108" type="line"/>
      <point x="246.8" y="-23.4004"/>
      <point x="137.6" y="209.4"/>
      <point x="137.6" y="352.2" type="qcurve" smooth="yes"/>
      <point x="137.6" y="602.4"/>
      <point x="347" y="828" type="qcurve"/>
      <point x="398" y="784.2" type="line"/>
      <point x="305" y="687"/>
      <point x="203" y="470.4"/>
      <point x="203" y="354" type="qcurve" smooth="yes"/>
      <point x="203" y="198.6"/>
      <point x="264.2" y="96.5996" type="qcurve" smooth="yes"/>
      <point x="297.8" y="42"/>
    </contour>
  </outline>
</glyph>
<glyph name="parenright" format="2">
  <advance width="632"/>
  <unicode hex="0029"/>
  <outline>
    <contour>
      <point x="592.4" y="352" type="qcurve" smooth="yes"/>
      <point x="592.4" y="202"/>
      <point x="483.2" y="-35"/>
      <point x="364.4" y="-124.4" type="qcurve"/>
      <point x="320.6" y="-73.4004" type="line"/>
      <point x="429.8" y="34.5996"/>
      <point x="461" y="85.5996" type="qcurve" smooth="yes"/>
      <point x="525.2" y="191.2"/>
      <point x="525.2" y="353.8" type="qcurve" smooth="yes"/>
      <point x="525.2" y="472.6"/>
      <point x="422.6" y="697"/>
      <point x="327.8" y="799" type="qcurve"/>
      <point x="377" y="846.4" type="line"/>
      <point x="488.6" y="725.8"/>
      <point x="592.4" y="488.8"/>
    </contour>
  </outline>
</glyph>
<glyph name="asterisk" format="2">
  <advance width="777"/>
  <unicode hex="002A"/>
  <outline>
    <contour>
      <point x="297.2" y="323.4" type="line"/>
      <point x="376.4" y="144.6" type="line"/>
      <point x="500.6" y="129" type="line"/>
      <point x="465.8" y="234" type="line"/>
      <point x="293" y="327" type="line"/>
    </contour>
    <contour>
      <point x="751.4" y="108" type="line"/>
      <point x="569" y="177.6" type="line"/>
      <point x="470" y="100.8" type="line"/>
      <point x="569" y="51.5996" type="line"/>
      <point x="756.8" y="108" type="line"/>
    </contour>
    <contour>
      <point x="200.6" y="103.2" type="line"/>
      <point x="383" y="33" type="line"/>
      <point x="482" y="109.8" type="line"/>
      <point x="383" y="159.6" type="line"/>
      <point x="195.2" y="103.2" type="line"/>
    </contour>
    <contour>
      <point x="680.6" y="-116.4" type="line"/>
      <point x="601.4" y="62.4004" type="line"/>
      <point x="477.2" y="78" type="line"/>
      <point x="512" y="-27" type="line"/>
      <point x="684.8" y="-120" type="line"/>
    </contour>
    <contour>
      <point x="670.4" y="339" type="line"/>
      <point x="492.2" y="259.8" type="line"/>
      <point x="476.6" y="135.6" type="line"/>
      <point x="581" y="170.4" type="line"/>
      <point x="674.6" y="343.2" type="line"/>
    </contour>
    <contour>
      <point x="305" y="-120" type="line"/>
      <point x="483.2" y="-40.7998" type="line"/>
      <point x="498.8" y="83.4004" type="line"/>
      <point x="393.8" y="48.5996" type="line"/>
      <point x="300.8" y="-124.2" type="line"/>
    </contour>
  </outline>
</glyph>
<glyph name="plus" format="2">
  <advance width="803"/>
  <unicode hex="002B"/>
  <outline>
    <contour>
      <point x="250.6" y="-66" type="line"/>
      <point x="455.2" y="-67.7998" type="line"/>
      <point x="454" y="-342.6" type="line"/>
      <point x="511" y="-307.2" type="line"/>
      <point x="559" y="-272.4" type="line"/>
      <point x="559" y="-72.5996" type="line"/>
      <point x="817.6" y="-72" type="line"/>
      <point x="758.2" y="27" type="line"/>
      <point x="559" y="27" type="line"/>
      <point x="559" y="282.6" type="line"/>
      <point x="460" y="217.2" type="line"/>
      <point x="460" y="27" type="line"/>
      <point x="174.4" y="27" type="line"/>
    </contour>
  </outline>
</glyph>
<glyph name="comma" format="2">
  <advance width="347"/>
  <unicode hex="002C"/>
  <outline>
    <contour>
      <point x="137.768" y="-526.857" type="qcurve"/>
      <point x="53.168" y="-636.658" type="line"/>
      <point x="279.968" y="-547.857"/>
      <point x="111.968" y="-422.458"/>
    </contour>
  </outline>
</glyph>
<glyph name="hyphen" format="2">
  <advance width="686"/>
  <unicode hex="002D"/>
  <outline>
    <contour>
      <point x="539.8" y="7" type="line"/>
      <point x="220" y="7" type="line"/>
      <point x="254.2" y="73" type="line"/>
      <point x="580" y="73" type="line"/>
    </contour>
  </outline>
</glyph>
<glyph name="period" format="2">
  <advance width="303"/>
  <unicode hex="002E"/>
  <outline>
    <contour>
      <point x="196.2" y="-505.8" type="qcurve" smooth="yes"/>
      <point x="196.2" y="-526.8"/>
      <point x="168.6" y="-562.8"/>
      <point x="145.8" y="-562.8" type="qcurve" smooth="yes"/>
      <point x="119.4" y="-562.8"/>
      <point x="91.7998" y="-529.8"/>
      <point x="91.7998" y="-505.8" type="qcurve" smooth="yes"/>
      <point x="91.7998" y="-483"/>
      <point x="119.4" y="-448.2"/>
      <point x="145.8" y="-448.2" type="qcurve" smooth="yes"/>
      <point x="168.6" y="-448.2"/>
      <point x="196.2" y="-481.2"/>
    </contour>
  </outline>
</glyph>
<glyph name="slash" format="2">
  <advance width="1035"/>
  <unicode hex="002F"/>
  <outline>
    <contour>
      <point x="374.6" y="-278.6" type="line"/>
      <point x="305" y="-227" type="line"/>
      <point x="907.4" y="583.6" type="line"/>
      <point x="977" y="532" type="line"/>
    </contour>
  </outline>
</glyph>
<glyph name="colon" format="2">
  <advance width="548"/>
  <unicode hex="003A"/>
  <outline>
    <contour>
      <point x="276.4" y="572.6" type="qcurve" smooth="yes"/>
      <point x="276.4" y="542"/>
      <point x="236.2" y="489.2"/>
      <point x="202.6" y="489.2" type="qcurve" smooth="yes"/>
      <point x="163.6" y="489.2"/>
      <point x="123.4" y="537.8"/>
      <point x="123.4" y="572.6" type="qcurve" smooth="yes"/>
      <point x="123.4" y="606.2"/>
      <point x="163.6" y="657.8"/>
      <point x="202.6" y="657.8" type="qcurve" smooth="yes"/>
      <point x="236.2" y="657.8"/>
      <point x="276.4" y="609.2"/>
    </contour>
    <contour>
      <point x="241.6" y="45.2002" type="qcurve" smooth="yes"/>
      <point x="241.6" y="20"/>
      <point x="208.6" y="-23.7998"/>
      <point x="181" y="-23.7998" type="qcurve" smooth="yes"/>
      <point x="148.6" y="-23.7998"/>
      <point x="115.6" y="16.4004"/>
      <point x="115.6" y="45.2002" type="qcurve" smooth="yes"/>
      <point x="115.6" y="72.2002"/>
      <point x="148.6" y="114.8"/>
      <point x="181" y="114.8" type="qcurve" smooth="yes"/>
      <point x="208.6" y="114.8"/>
      <point x="241.6" y="74.5996"/>
    </contour>
  </outline>
</glyph>
<glyph name="semicolon" format="2">
  <advance width="653"/>
  <unicode hex="003B"/>
  <outline>
    <contour>
      <point x="352.728" y="678.6" type="qcurve" smooth="yes"/>
      <point x="352.728" y="656.4"/>
      <point x="323.928" y="618.6"/>
      <point x="299.928" y="618.6" type="qcurve" smooth="yes"/>
      <point x="271.728" y="618.6"/>
      <point x="242.928" y="653.4"/>
      <point x="242.928" y="678.6" type="qcurve" smooth="yes"/>
      <point x="242.928" y="702.6"/>
      <point x="271.728" y="739.2"/>
      <point x="299.928" y="739.2" type="qcurve" smooth="yes"/>
      <point x="323.928" y="739.2"/>
      <point x="352.728" y="704.4"/>
    </contour>
    <contour>
      <point x="286.728" y="204.6" type="qcurve"/>
      <point x="199.728" y="91.7998" type="line"/>
      <point x="433.128" y="183.6"/>
      <point x="259.728" y="312.6"/>
    </contour>
  </outline>
</glyph>
<glyph name="less" format="2">
  <advance width="676"/>
  <unicode hex="003C"/>
  <outline>
    <contour>
      <point x="169" y="328" type="line"/>
      <point x="589" y="688" type="line"/>
      <point x="625" y="634" type="line"/>
      <point x="271" y="316" type="line"/>
      <point x="631" y="-50" type="line"/>
      <point x="577" y="-98" type="line"/>
    </contour>
  </outline>
</glyph>
<glyph name="equal" format="2">
  <advance width="961"/>
  <unicode hex="003D"/>
  <outline>
    <contour>
      <point x="369.8" y="135.2" type="line"/>
      <point x="836" y="135.2" type="line"/>
      <point x="786.2" y="237.8" type="line"/>
      <point x="311" y="237.8" type="line"/>
    </contour>
    <contour>
      <point x="342.8" y="516.2" type="line"/>
      <point x="809" y="516.2" type="line"/>
      <point x="759.2" y="618.8" type="line"/>
      <point x="284" y="618.8" type="line"/>
    </contour>
  </outline>
</glyph>
<glyph name="greater" format="2">
  <advance width="1096"/>
  <unicode hex="003E"/>
  <outline>
    <contour>
      <point x="1021" y="318" type="line"/>
      <point x="601" y="678" type="line"/>
      <point x="565" y="624" type="line"/>
      <point x="919" y="306" type="line"/>
      <point x="559" y="-60" type="line"/>
      <point x="613" y="-108" type="line"/>
    </contour>
  </outline>
</glyph>
<glyph name="question" format="2">
  <advance width="907"/>
  <unicode hex="003F"/>
  <outline>
    <contour>
      <point x="887.8" y="662.6" type="qcurve" smooth="yes"/>
      <point x="887.8" y="549.8"/>
      <point x="598" y="264.8"/>
      <point x="598" y="217.4" type="qcurve" smooth="yes"/>
      <point x="598" y="172.4"/>
      <point x="622.6" y="139.4" type="qcurve" smooth="yes"/>
      <point x="630.4" y="129.8"/>
      <point x="647.8" y="117.2" type="qcurve"/>
      <point x="565" y="62" type="line"/>
      <point x="545.2" y="84.7998"/>
      <point x="538" y="99.7998" type="qcurve" smooth="yes"/>
      <point x="508" y="152"/>
      <point x="508" y="212" type="qcurve" smooth="yes"/>
      <point x="508" y="290"/>
      <point x="703" y="492.2" type="qcurve" smooth="yes"/>
      <point x="793" y="584.6"/>
      <point x="793" y="662.6" type="qcurve" smooth="yes"/>
      <point x="793" y="725"/>
      <point x="695.2" y="827.6"/>
      <point x="632.8" y="827.6" type="qcurve" smooth="yes"/>
      <point x="570.4" y="827.6"/>
      <point x="482.8" y="759.8"/>
      <point x="472.6" y="712.4" type="qcurve" smooth="yes"/>
      <point x="465.4" y="674.6"/>
      <point x="482.8" y="652.4" type="qcurve" smooth="yes"/>
      <point x="493" y="639.8"/>
      <point x="512.8" y="632.6" type="qcurve"/>
      <point x="530.2" y="665"/>
      <point x="568" y="665" type="qcurve" smooth="yes"/>
      <point x="637.6" y="665"/>
      <point x="637.6" y="592.4" type="qcurve" smooth="yes"/>
      <point x="637.6" y="554.6"/>
      <point x="583" y="512.6"/>
      <point x="540.4" y="512.6" type="qcurve" smooth="yes"/>
      <point x="482.8" y="512.6"/>
      <point x="437.8" y="557.6" type="qcurve" smooth="yes"/>
      <point x="380.2" y="614.6"/>
      <point x="380.2" y="710" type="qcurve" smooth="yes"/>
      <point x="380.2" y="797.6"/>
      <point x="532.6" y="920"/>
      <point x="630.4" y="920" type="qcurve" smooth="yes"/>
      <point x="740.2" y="920"/>
      <point x="887.8" y="772.4"/>
    </contour>
    <contour>
      <point x="588.4" y="628.4"/>
      <point x="575.2" y="628.4" type="qcurve" smooth="yes"/>
      <point x="559" y="628.4"/>
      <point x="543.4" y="609.2"/>
      <point x="543.4" y="594.8" type="qcurve" smooth="yes"/>
      <point x="543.4" y="580.4"/>
      <point x="559.6" y="562.4"/>
      <point x="575.2" y="562.4" type="qcurve" smooth="yes"/>
      <point x="604.6" y="562.4"/>
      <point x="604.6" y="594.2" type="qcurve" smooth="yes"/>
      <point x="604.6" y="608.6"/>
    </contour>
    <contour>
      <point x="682.6" y="-110.2" type="qcurve" smooth="yes"/>
      <point x="682.6" y="-193"/>
      <point x="605.2" y="-193" type="qcurve" smooth="yes"/>
      <point x="565" y="-193"/>
      <point x="523" y="-145.6"/>
      <point x="523" y="-107.8" type="qcurve" smooth="yes"/>
      <point x="523" y="-70.5996"/>
      <point x="562.6" y="-20.2002"/>
      <point x="605.2" y="-20.2002" type="qcurve" smooth="yes"/>
      <point x="640" y="-20.2002"/>
      <point x="682.6" y="-73"/>
    </contour>
    <contour>
      <point x="627.4" y="-55.5996"/>
      <point x="608.8" y="-55.5996" type="qcurve" smooth="yes"/>
      <point x="586" y="-55.5996"/>
      <point x="564.4" y="-82"/>
      <point x="564.4" y="-102.4" type="qcurve" smooth="yes"/>
      <point x="564.4" y="-122.8"/>
      <point x="587.2" y="-148"/>
      <point x="608.8" y="-148" type="qcurve" smooth="yes"/>
      <point x="650.2" y="-148"/>
      <point x="650.2" y="-103.6" type="qcurve" smooth="yes"/>
      <point x="650.2" y="-83.7998"/>
    </contour>
  </outline>
</glyph>
<glyph name="at" format="2">
  <advance width="1156"/>
  <unicode hex="0040"/>
  <outline>
    <contour>
      <point x="679.257" y="210.442" type="line"/>
      <point x="477.656" y="147.442" type="line"/>
      <point x="468.656" y="4.04199" type="line"/>
      <point x="535.856" y="-144.158" type="line"/>
      <point x="675.057" y="-162.158" type="line"/>
      <point x="818.457" y="-40.958" type="line"/>
      <point x="867.656" y="-135.158" type="line"/>
      <point x="984.656" y="-148.958" type="line"/>
      <point x="1024.86" y="157.642"/>
      <point x="718.856" y="516.442"/>
      <point x="376.257" y="413.242"/>
      <point x="235.257" y="-33.1582"/>
      <point x="507.656" y="-282.158" type="qcurve"/>
      <point x="618.656" y="-249.158" type="line"/>
      <point x="292.856" y="-57.1582"/>
      <point x="426.057" y="351.442"/>
      <point x="574.856" y="387.442" type="qcurve" smooth="yes"/>
      <point x="723.057" y="423.442"/>
      <point x="938.457" y="114.442"/>
      <point x="908.457" y="-85.958" type="qcurve"/>
      <point x="773.457" y="134.242" type="line"/>
      <point x="724.257" y="98.2422" type="line"/>
      <point x="787.257" y="1.6416" type="line"/>
      <point x="684.057" y="-81.1582" type="line"/>
      <point x="607.856" y="-76.958" type="line"/>
      <point x="549.057" y="17.2422" type="line"/>
      <point x="562.856" y="125.242" type="line"/>
      <point x="688.257" y="170.242" type="line"/>
    </contour>
  </outline>
</glyph>
<glyph name="uni1C50" format="2">
  <advance width="1251"/>
  <unicode hex="1C50"/>
  <outline>
    <contour>
      <point x="458" y="408" type="qcurve" smooth="yes"/>
      <point x="458" y="518"/>
      <point x="546" y="678"/>
      <point x="624" y="712" type="qcurve" smooth="yes"/>
      <point x="673" y="733"/>
      <point x="734" y="734" type="qcurve" smooth="yes"/>
      <point x="855" y="735"/>
      <point x="932" y="647" type="qcurve" smooth="yes"/>
      <point x="1011" y="557"/>
      <point x="1011" y="408" type="qcurve" smooth="yes"/>
      <point x="1011" y="297"/>
      <point x="967" y="217" type="qcurve" smooth="yes"/>
      <point x="924" y="139"/>
      <point x="845" y="102" type="qcurve" smooth="yes"/>
      <point x="793" y="78"/>
      <point x="734" y="78" type="qcurve" smooth="yes"/>
      <point x="611" y="79"/>
      <point x="536.277" y="167.703" type="qcurve" smooth="yes"/>
      <point x="458" y="260.626"/>
    </contour>
    <contour>
      <point x="548.008" y="407.898" type="qcurve" smooth="yes"/>
      <point x="548.008" y="364.717"/>
      <point x="562.848" y="287.882"/>
      <point x="591.305" y="224.504"/>
      <point x="634.094" y="175.593"/>
      <point x="661.402" y="160.613" type="qcurve" smooth="yes"/>
      <point x="695.477" y="141.922"/>
      <point x="734.02" y="141.922" type="qcurve" smooth="yes"/>
      <point x="814.103" y="141.922"/>
      <point x="866.406" y="213.895" type="qcurve" smooth="yes"/>
      <point x="920.59" y="288.455"/>
      <point x="920.59" y="407.898" type="qcurve" smooth="yes"/>
      <point x="920.59" y="494.895"/>
      <point x="861.936" y="623.698"/>
      <point x="807.195" y="653.035" type="qcurve" smooth="yes"/>
      <point x="773.121" y="671.297"/>
      <point x="734.02" y="671.297" type="qcurve" smooth="yes"/>
      <point x="654.204" y="671.297"/>
      <point x="602.191" y="600.613" type="qcurve" smooth="yes"/>
      <point x="548.008" y="526.979"/>
    </contour>
  </outline>
</glyph>
<glyph name="uni1C51" format="2">
  <advance width="1098"/>
  <unicode hex="1C51"/>
  <outline>
    <contour>
      <point x="632.688" y="626" type="line"/>
      <point x="603.438" y="561"/>
      <point x="603.438" y="451" type="qcurve" smooth="yes"/>
      <point x="603.438" y="336.634"/>
      <point x="700.539" y="181.56"/>
      <point x="786.812" y="126.25" type="qcurve" smooth="yes"/>
      <point x="850.375" y="85.5"/>
      <point x="939.25" y="53.5" type="qcurve"/>
      <point x="939.25" y="51" type="line"/>
      <point x="899.875" y="-11" type="line"/>
      <point x="813.447" y="13.6233"/>
      <point x="674.943" y="94.2406"/>
      <point x="568.301" y="215.667"/>
      <point x="539.875" y="292.5" type="qcurve" smooth="yes"/>
      <point x="512.312" y="367"/>
      <point x="512.312" y="455" type="qcurve" smooth="yes"/>
      <point x="512.312" y="567.5"/>
      <point x="554.5" y="679.25" type="qcurve" smooth="yes"/>
      <point x="568.562" y="716.5"/>
      <point x="588.25" y="750.5" type="qcurve"/>
      <point x="591.625" y="750.5" type="line"/>
      <point x="862.75" y="572" type="line"/>
      <point x="866.125" y="572" type="line"/>
      <point x="866.125" y="730.5" type="line"/>
      <point x="955.562" y="730.5" type="line"/>
      <point x="955.562" y="421" type="line"/>
      <point x="952.188" y="421" type="line"/>
      <point x="636.062" y="626" type="line"/>
    </contour>
  </outline>
</glyph>
<glyph name="uni1C52" format="2">
  <advance width="1070"/>
  <unicode hex="1C52"/>
  <outline>
    <contour>
      <point x="770.8" y="90.2002" type="line"/>
      <point x="841" y="34.4004" type="line"/>
      <point x="788.2" y="-65.2002"/>
      <point x="644.8" y="-161.2"/>
      <point x="555.4" y="-161.2" type="qcurve" smooth="yes"/>
      <point x="469.057" y="-161.2"/>
      <point x="342.032" y="-86.0641"/>
      <point x="310.6" y="-23.2002" type="qcurve" smooth="yes"/>
      <point x="289" y="20"/>
      <point x="289" y="72.7998" type="qcurve" smooth="yes"/>
      <point x="289" y="115.141"/>
      <point x="313.507" y="178.879"/>
      <point x="338.5" y="216.8" type="qcurve" smooth="yes"/>
      <point x="364.6" y="256.4"/>
      <point x="448" y="354.2"/>
      <point x="508.6" y="420.8" type="qcurve"/>
      <point x="405.592" y="464.707"/>
      <point x="380.5" y="545" type="qcurve" smooth="yes"/>
      <point x="373" y="569"/>
      <point x="373" y="592.4" type="qcurve" smooth="yes"/>
      <point x="373" y="643.145"/>
      <point x="421.099" y="716.565"/>
      <point x="460.9" y="735.5" type="qcurve" smooth="yes"/>
      <point x="491.8" y="750.2"/>
      <point x="535.6" y="750.2" type="qcurve" smooth="yes"/>
      <point x="574.917" y="750.2"/>
      <point x="637.865" y="725.487"/>
      <point x="679.268" y="682.299"/>
      <point x="690.7" y="652.4" type="qcurve" smooth="yes"/>
      <point x="702.4" y="621.8"/>
      <point x="702.4" y="584.6" type="qcurve" smooth="yes"/>
      <point x="702.4" y="531.083"/>
      <point x="671.5" y="481.4" type="qcurve" smooth="yes"/>
      <point x="650.916" y="448.304"/>
      <point x="582.4" y="368.6" type="qcurve" smooth="yes"/>
      <point x="524.8" y="302"/>
      <point x="448.6" y="210.8"/>
      <point x="403" y="144.2"/>
      <point x="383.8" y="94.4004"/>
      <point x="383.8" y="69.2002" type="qcurve" smooth="yes"/>
      <point x="383.8" y="-0.84257"/>
      <point x="476.209" y="-76"/>
      <point x="551.2" y="-76" type="qcurve" smooth="yes"/>
      <point x="610.059" y="-76"/>
      <point x="690.905" y="-28.4918"/>
      <point x="723.1" y="14.2998" type="qcurve" smooth="yes"/>
      <point x="746.8" y="45.7998"/>
      <point x="767.8" y="90.2002" type="qcurve"/>
    </contour>
    <contour>
      <point x="536.8" y="669.2" type="qcurve" smooth="yes"/>
      <point x="500.937" y="669.2"/>
      <point x="458.2" y="624.728"/>
      <point x="458.2" y="588.2" type="qcurve" smooth="yes"/>
      <point x="458.2" y="542.107"/>
      <point x="506.8" y="507.8" type="qcurve" smooth="yes"/>
      <point x="527.2" y="493.4"/>
      <point x="562" y="480.8" type="qcurve" smooth="yes"/>
      <point x="562.53" y="481.445"/>
      <point x="576.667" y="498.473"/>
      <point x="579.088" y="501.747"/>
      <point x="591.145" y="517.36"/>
      <point x="594.304" y="523.699"/>
      <point x="603.242" y="538.451"/>
      <point x="606.101" y="548.409"/>
      <point x="610.881" y="562.857"/>
      <point x="612.4" y="576.988"/>
      <point x="612.4" y="584.6" type="qcurve" smooth="yes"/>
      <point x="612.4" y="622.131"/>
      <point x="572.292" y="669.2"/>
    </contour>
  </outline>
</glyph>
<glyph name="uni1C53" format="2">
  <advance width="1119"/>
  <unicode hex="1C53"/>
  <outline>
    <contour>
      <point x="634" y="594" type="qcurve" smooth="yes"/>
      <point x="634" y="526.301"/>
      <point x="587.2" y="462.6" type="qcurve"/>
      <point x="706" y="420.6" type="line"/>
      <point x="709.6" y="420.6" type="line"/>
      <point x="709.6" y="744" type="line"/>
      <point x="803.2" y="744" type="line"/>
      <point x="803.2" y="298.8" type="line"/>
      <point x="799.6" y="298.8" type="line"/>
      <point x="530.2" y="399" type="line"/>
      <point x="447.343" y="313.841"/>
      <point x="414.7" y="262.8" type="qcurve" smooth="yes"/>
      <point x="385.6" y="217.297"/>
      <point x="385.6" y="172.2" type="qcurve" smooth="yes"/>
      <point x="385.6" y="122.845"/>
      <point x="432.498" y="57.3616"/>
      <point x="475.6" y="30.9004" type="qcurve" smooth="yes"/>
      <point x="530.902" y="-3.05172"/>
      <point x="675.995" y="-47.2816"/>
      <point x="781" y="-68.4004" type="qcurve"/>
      <point x="781" y="-71.4004" type="line"/>
      <point x="738.4" y="-145.8" type="line"/>
      <point x="520.247" y="-110.058"/>
      <point x="408.7" y="-31.7998" type="qcurve" smooth="yes"/>
      <point x="290.8" y="50.9163"/>
      <point x="290.8" y="177" type="qcurve" smooth="yes"/>
      <point x="290.8" y="231.632"/>
      <point x="319.9" y="285.6" type="qcurve" smooth="yes"/>
      <point x="353.953" y="348.753"/>
      <point x="439" y="433.8" type="qcurve"/>
      <point x="336.016" y="478.428"/>
      <point x="311.5" y="555.9" type="qcurve" smooth="yes"/>
      <point x="304" y="579.6"/>
      <point x="304" y="603" type="qcurve" smooth="yes"/>
      <point x="304" y="653.744"/>
      <point x="352.099" y="727.166"/>
      <point x="391.9" y="746.1" type="qcurve" smooth="yes"/>
      <point x="422.8" y="760.8"/>
      <point x="466.6" y="760.8" type="qcurve" smooth="yes"/>
      <point x="505.983" y="760.8"/>
      <point x="569.231" y="735.838"/>
      <point x="610.839" y="692.375"/>
      <point x="622.3" y="662.4" type="qcurve" smooth="yes"/>
      <point x="634" y="631.8"/>
    </contour>
    <contour>
      <point x="467.8" y="679.8" type="qcurve" smooth="yes"/>
      <point x="444.425" y="679.8"/>
      <point x="408.894" y="659.539"/>
      <point x="389.8" y="623.079"/>
      <point x="389.8" y="599.4" type="qcurve" smooth="yes"/>
      <point x="389.8" y="572.927"/>
      <point x="415.921" y="538.649"/>
      <point x="440.2" y="522" type="qcurve" smooth="yes"/>
      <point x="461.2" y="507.6"/>
      <point x="495.4" y="494.4" type="qcurve"/>
      <point x="520" y="523.2"/>
      <point x="543.4" y="569.4"/>
      <point x="543.4" y="595.2" type="qcurve" smooth="yes"/>
      <point x="543.4" y="633.299"/>
      <point x="503.125" y="679.8"/>
    </contour>
  </outline>
</glyph>
<glyph name="uni1C54" format="2">
  <advance width="1073"/>
  <unicode hex="1C54"/>
  <outline>
    <contour>
      <point x="762.6" y="351.4" type="line"/>
      <point x="800.4" y="298.244"/>
      <point x="800.4" y="208.6" type="qcurve" smooth="yes"/>
      <point x="800.4" y="129.12"/>
      <point x="730.119" y="16.1361"/>
      <point x="670.2" y="-10.4004" type="qcurve" smooth="yes"/>
      <point x="628.2" y="-29"/>
      <point x="575.4" y="-29" type="qcurve" smooth="yes"/>
      <point x="458.003" y="-29"/>
      <point x="380.7" y="55" type="qcurve" smooth="yes"/>
      <point x="297.6" y="145.298"/>
      <point x="297.6" y="296.8" type="qcurve" smooth="yes"/>
      <point x="297.6" y="450.443"/>
      <point x="382.8" y="602.5" type="qcurve" smooth="yes"/>
      <point x="475.817" y="768.508"/>
      <point x="646.8" y="889" type="qcurve"/>
      <point x="717.6" y="833.2" type="line"/>
      <point x="717.6" y="830.8" type="line"/>
      <point x="552.63" y="699.302"/>
      <point x="465.6" y="547" type="qcurve"/>
      <point x="468.973" y="466.047"/>
      <point x="520.382" y="346.558"/>
      <point x="569.1" y="319" type="qcurve" smooth="yes"/>
      <point x="598.8" y="302.2"/>
      <point x="633" y="302.2" type="qcurve" smooth="yes"/>
      <point x="702.032" y="302.2"/>
      <point x="759" y="351.4" type="qcurve"/>
    </contour>
    <contour>
      <point x="717" y="237.4" type="line"/>
      <point x="681.002" y="215.8"/>
      <point x="627.6" y="215.8" type="qcurve" smooth="yes"/>
      <point x="562.948" y="215.8"/>
      <point x="468.136" y="279.681"/>
      <point x="439.2" y="330.1" type="qcurve" smooth="yes"/>
      <point x="419.4" y="364.6"/>
      <point x="411" y="404.2" type="qcurve"/>
      <point x="407.4" y="404.2" type="line"/>
      <point x="393" y="352.142"/>
      <point x="393" y="294.4" type="qcurve" smooth="yes"/>
      <point x="393" y="209.942"/>
      <point x="452.252" y="95.3121"/>
      <point x="509.7" y="73.2998" type="qcurve" smooth="yes"/>
      <point x="541.8" y="61"/>
      <point x="573.6" y="61" type="qcurve" smooth="yes"/>
      <point x="626.748" y="61"/>
      <point x="694.945" y="117.752"/>
      <point x="709.8" y="164.5" type="qcurve" smooth="yes"/>
      <point x="720" y="196.6"/>
      <point x="720" y="235.6" type="qcurve"/>
    </contour>
  </outline>
</glyph>
<glyph name="uni1C55" format="2">
  <advance width="1167"/>
  <unicode hex="1C55"/>
  <outline>
    <contour>
      <point x="794.6" y="214" type="line"/>
      <point x="768.254" y="201.4"/>
      <point x="730.4" y="201.4" type="qcurve" smooth="yes"/>
      <point x="667.683" y="201.4"/>
      <point x="583.271" y="264.214"/>
      <point x="563.9" y="316.3" type="qcurve" smooth="yes"/>
      <point x="550.4" y="352.6"/>
      <point x="550.4" y="397.6" type="qcurve" smooth="yes"/>
      <point x="550.4" y="481.546"/>
      <point x="633.024" y="593.71"/>
      <point x="702.5" y="622" type="qcurve" smooth="yes"/>
      <point x="752.6" y="642.4"/>
      <point x="818.6" y="646.6" type="qcurve"/>
      <point x="852.8" y="567.4" type="line"/>
      <point x="851" y="565" type="line"/>
      <point x="781.463" y="563.261"/>
      <point x="682.203" y="510.028"/>
      <point x="659.9" y="462.1" type="qcurve" smooth="yes"/>
      <point x="645.8" y="431.8"/>
      <point x="645.8" y="395.8" type="qcurve" smooth="yes"/>
      <point x="645.8" y="345.445"/>
      <point x="699.507" y="289"/>
      <point x="748.4" y="289" type="qcurve" smooth="yes"/>
      <point x="814.499" y="289"/>
      <point x="860" y="328" type="qcurve"/>
      <point x="863.6" y="328" type="line"/>
      <point x="884.6" y="272.004"/>
      <point x="884.6" y="218.8" type="qcurve" smooth="yes"/>
      <point x="884.6" y="136.186"/>
      <point x="804.186" y="18.4607"/>
      <point x="738.8" y="-9.5" type="qcurve" smooth="yes"/>
      <point x="693.2" y="-29"/>
      <point x="636.8" y="-29" type="qcurve" smooth="yes"/>
      <point x="498.378" y="-29"/>
      <point x="410.9" y="86.7998" type="qcurve" smooth="yes"/>
      <point x="322.4" y="203.951"/>
      <point x="322.4" y="392.8" type="qcurve" smooth="yes"/>
      <point x="322.4" y="587.964"/>
      <point x="408.5" y="775.9" type="qcurve" smooth="yes"/>
      <point x="436.4" y="836.8"/>
      <point x="472.4" y="889" type="qcurve"/>
      <point x="545.6" y="831.4" type="line"/>
      <point x="545.6" y="829" type="line"/>
      <point x="455.232" y="679.025"/>
      <point x="428.6" y="506.8" type="qcurve" smooth="yes"/>
      <point x="419.6" y="448.6"/>
      <point x="419.6" y="391.6" type="qcurve" smooth="yes"/>
      <point x="419.6" y="281.815"/>
      <point x="487.219" y="119.857"/>
      <point x="553.1" y="83.2002" type="qcurve" smooth="yes"/>
      <point x="593" y="61"/>
      <point x="639.2" y="61" type="qcurve" smooth="yes"/>
      <point x="691.372" y="61"/>
      <point x="766.633" y="111.06"/>
      <point x="784.7" y="151.6" type="qcurve" smooth="yes"/>
      <point x="797" y="179.2"/>
      <point x="797" y="212.2" type="qcurve"/>
    </contour>
  </outline>
</glyph>
<glyph name="uni1C56" format="2">
  <advance width="1107"/>
  <unicode hex="1C56"/>
  <outline>
    <contour>
      <point x="441.8" y="734.8" type="qcurve"/>
      <point x="432.2" y="762.399"/>
      <point x="426.2" y="793.6" type="qcurve"/>
      <point x="493.4" y="834.4" type="line"/>
      <point x="497" y="834.4" type="line"/>
      <point x="505.076" y="795.636"/>
      <point x="509.6" y="779.8" type="qcurve"/>
      <point x="581.537" y="816.4"/>
      <point x="647.6" y="816.4" type="qcurve" smooth="yes"/>
      <point x="708.915" y="816.4"/>
      <point x="799.304" y="761.786"/>
      <point x="821.3" y="716.5" type="qcurve" smooth="yes"/>
      <point x="836.6" y="685"/>
      <point x="836.6" y="645.4" type="qcurve" smooth="yes"/>
      <point x="836.6" y="590.854"/>
      <point x="781.894" y="516.311"/>
      <point x="737.3" y="499.3" type="qcurve" smooth="yes"/>
      <point x="708.2" y="488.2"/>
      <point x="675.8" y="488.2" type="qcurve" smooth="yes"/>
      <point x="617.6" y="488.2"/>
      <point x="516.2" y="562.6"/>
      <point x="477.8" y="641.8" type="qcurve"/>
      <point x="392" y="550.551"/>
      <point x="392" y="428.8" type="qcurve" smooth="yes"/>
      <point x="392" y="305.2"/>
      <point x="597.8" y="74.7998"/>
      <point x="794" y="-28.4004" type="qcurve"/>
      <point x="794" y="-31.4004" type="line"/>
      <point x="726.2" y="-91.4004" type="line"/>
      <point x="514.684" y="12.5864"/>
      <point x="403.4" y="148.6" type="qcurve" smooth="yes"/>
      <point x="295.4" y="280.6"/>
      <point x="295.4" y="429.4" type="qcurve" smooth="yes"/>
      <point x="295.4" y="567.912"/>
      <point x="383.9" y="676.3" type="qcurve" smooth="yes"/>
      <point x="410.6" y="709"/>
    </contour>
    <contour>
      <point x="670.4" y="569.2" type="qcurve" smooth="yes"/>
      <point x="694.073" y="569.2"/>
      <point x="730.552" y="588.498"/>
      <point x="750.8" y="624.3"/>
      <point x="750.8" y="647.8" type="qcurve" smooth="yes"/>
      <point x="750.8" y="687.274"/>
      <point x="696.874" y="732.4"/>
      <point x="654.8" y="732.4" type="qcurve" smooth="yes"/>
      <point x="600.8" y="732.4"/>
      <point x="538.4" y="693.4" type="qcurve"/>
      <point x="566" y="626.8"/>
      <point x="634.4" y="569.2"/>
    </contour>
  </outline>
</glyph>
<glyph name="uni1C57" format="2">
  <advance width="1054"/>
  <unicode hex="1C57"/>
  <outline>
    <contour>
      <point x="521.8" y="626.6" type="qcurve" smooth="yes"/>
      <point x="521.8" y="582.082"/>
      <point x="559" y="548.6" type="qcurve"/>
      <point x="559" y="545.6" type="line"/>
      <point x="500.8" y="492.2" type="line"/>
      <point x="288.399" y="718.4" type="line"/>
      <point x="346.6" y="778.4" type="line"/>
      <point x="350.199" y="778.4" type="line"/>
      <point x="445.6" y="659" type="line"/>
      <point x="448.6" y="660.2" type="line"/>
      <point x="458.94" y="719.284"/>
      <point x="533.224" y="789.2"/>
      <point x="596.8" y="789.2" type="qcurve" smooth="yes"/>
      <point x="653.762" y="789.2"/>
      <point x="730.146" y="736.783"/>
      <point x="747.699" y="691.4" type="qcurve" smooth="yes"/>
      <point x="760" y="659.6"/>
      <point x="760" y="618.8" type="qcurve" smooth="yes"/>
      <point x="760" y="572.353"/>
      <point x="728.429" y="508.046"/>
      <point x="697" y="470" type="qcurve" smooth="yes"/>
      <point x="632.544" y="391.978"/>
      <point x="533.5" y="302.9" type="qcurve" smooth="yes"/>
      <point x="485.8" y="260"/>
      <point x="419.199" y="192.2"/>
      <point x="383.199" y="132.8"/>
      <point x="383.199" y="98.5996" type="qcurve" smooth="yes"/>
      <point x="383.199" y="50.3315"/>
      <point x="440.854" y="-12.7966"/>
      <point x="485.5" y="-27.0996" type="qcurve" smooth="yes"/>
      <point x="516.399" y="-37"/>
      <point x="552.399" y="-37" type="qcurve" smooth="yes"/>
      <point x="618.399" y="-37"/>
      <point x="724.6" y="40.4004"/>
      <point x="766.6" y="129.2" type="qcurve"/>
      <point x="770.199" y="129.2" type="line"/>
      <point x="839.8" y="73.4004" type="line"/>
      <point x="787.6" y="-26.2002"/>
      <point x="644.8" y="-122.2"/>
      <point x="555.399" y="-122.2" type="qcurve" smooth="yes"/>
      <point x="469.338" y="-122.2"/>
      <point x="341.965" y="-47.5552"/>
      <point x="310" y="14.5996" type="qcurve" smooth="yes"/>
      <point x="288.399" y="56.5996"/>
      <point x="288.399" y="107" type="qcurve" smooth="yes"/>
      <point x="288.399" y="153.98"/>
      <point x="320.736" y="219.508"/>
      <point x="351.399" y="252.8" type="qcurve" smooth="yes"/>
      <point x="386.077" y="290.449"/>
      <point x="568.423" y="460.826"/>
      <point x="609.399" y="507.8" type="qcurve" smooth="yes"/>
      <point x="634" y="536"/>
      <point x="647.5" y="556.4" type="qcurve" smooth="yes"/>
      <point x="670" y="590.399"/>
      <point x="670" y="623" type="qcurve" smooth="yes"/>
      <point x="670" y="661.553"/>
      <point x="631.624" y="708.8"/>
      <point x="596.8" y="708.8" type="qcurve" smooth="yes"/>
      <point x="562.296" y="708.8"/>
      <point x="521.8" y="663.142"/>
    </contour>
  </outline>
</glyph>
<glyph name="uni1C58" format="2">
  <advance width="1346"/>
  <unicode hex="1C58"/>
  <outline>
    <contour>
      <point x="1024.6" y="136.2" type="line"/>
      <point x="906.354" y="-94.2002"/>
      <point x="670" y="-94.2002" type="qcurve" smooth="yes"/>
      <point x="571.499" y="-94.2002"/>
      <point x="426.121" y="-17.2787"/>
      <point x="391.3" y="50.0996" type="qcurve" smooth="yes"/>
      <point x="368.2" y="94.7998"/>
      <point x="368.2" y="149.4" type="qcurve" smooth="yes"/>
      <point x="368.2" y="640.2" type="line" smooth="yes"/>
      <point x="368.2" y="698.682"/>
      <point x="424.028" y="780.666"/>
      <point x="469.9" y="799.2" type="qcurve" smooth="yes"/>
      <point x="499.6" y="811.2"/>
      <point x="532" y="811.2" type="qcurve" smooth="yes"/>
      <point x="561.529" y="811.2"/>
      <point x="611.686" y="794.351"/>
      <point x="654.214" y="758.868"/>
      <point x="678.912" y="732.134"/>
      <point x="697.6" y="708.6" type="qcurve"/>
      <point x="746.556" y="765.915"/>
      <point x="785.8" y="789" type="qcurve" smooth="yes"/>
      <point x="823.541" y="811.2"/>
      <point x="867.4" y="811.2" type="qcurve" smooth="yes"/>
      <point x="924.779" y="811.2"/>
      <point x="1005.72" y="754.823"/>
      <point x="1024.6" y="708.9" type="qcurve" smooth="yes"/>
      <point x="1037.8" y="676.8"/>
      <point x="1037.8" y="638.4" type="qcurve" smooth="yes"/>
      <point x="1037.8" y="600.536"/>
      <point x="1013" y="538.984"/>
      <point x="970.995" y="498.516"/>
      <point x="942.4" y="486.9" type="qcurve" smooth="yes"/>
      <point x="913.6" y="475.2"/>
      <point x="880" y="475.2" type="qcurve" smooth="yes"/>
      <point x="848.653" y="475.2"/>
      <point x="795.477" y="492.448"/>
      <point x="751.13" y="528.069"/>
      <point x="723.974" y="556.832"/>
      <point x="704.8" y="580.8" type="qcurve"/>
      <point x="632.8" y="480.6"/>
      <point x="539.2" y="340.2"/>
      <point x="484" y="241.2"/>
      <point x="462.4" y="173.4"/>
      <point x="462.4" y="145.8" type="qcurve" smooth="yes"/>
      <point x="462.4" y="87.7758"/>
      <point x="534.3" y="16.2463"/>
      <point x="590.5" y="1.2002" type="qcurve" smooth="yes"/>
      <point x="628.6" y="-9"/>
      <point x="671.8" y="-9" type="qcurve" smooth="yes"/>
      <point x="746.685" y="-9"/>
      <point x="850.722" y="48.3582"/>
      <point x="892.6" y="100.5" type="qcurve" smooth="yes"/>
      <point x="923.2" y="138.6"/>
      <point x="951.4" y="192" type="qcurve"/>
      <point x="955" y="192" type="line"/>
    </contour>
    <contour>
      <point x="535.6" y="726.6" type="qcurve" smooth="yes"/>
      <point x="517.362" y="726.6"/>
      <point x="487.402" y="713.636"/>
      <point x="467.33" y="690.649"/>
      <point x="456.4" y="658.89"/>
      <point x="456.4" y="640.2" type="qcurve" smooth="yes"/>
      <point x="456.4" y="376.8" type="line"/>
      <point x="459.4" y="376.2" type="line"/>
      <point x="522.955" y="484.05"/>
      <point x="652" y="652.2" type="qcurve"/>
      <point x="626.2" y="683.4"/>
      <point x="571" y="726.6"/>
    </contour>
    <contour>
      <point x="874" y="555" type="qcurve" smooth="yes"/>
      <point x="909.996" y="555"/>
      <point x="952" y="603.218"/>
      <point x="952" y="640.8" type="qcurve" smooth="yes"/>
      <point x="952" y="698.988"/>
      <point x="904.3" y="720.3" type="qcurve" smooth="yes"/>
      <point x="890.2" y="726.6"/>
      <point x="874.6" y="726.6" type="qcurve" smooth="yes"/>
      <point x="843.4" y="726.6"/>
      <point x="782.8" y="680.4"/>
      <point x="749.2" y="640.2" type="qcurve"/>
      <point x="795.295" y="579.439"/>
      <point x="838" y="561.9" type="qcurve" smooth="yes"/>
      <point x="854.8" y="555"/>
    </contour>
  </outline>
</glyph>
<glyph name="uni1C59" format="2">
  <advance width="1299"/>
  <unicode hex="1C59"/>
  <outline>
    <contour>
      <point x="853.6" y="76.5996" type="line"/>
      <point x="725.782" y="96.783"/>
      <point x="660.1" y="161.8" type="qcurve" smooth="yes"/>
      <point x="604" y="217.335"/>
      <point x="604" y="292.6" type="qcurve" smooth="yes"/>
      <point x="604" y="331.865"/>
      <point x="634.445" y="397.44"/>
      <point x="682.106" y="439.681"/>
      <point x="713.2" y="452.5" type="qcurve" smooth="yes"/>
      <point x="747.4" y="466.6"/>
      <point x="789.4" y="466.6" type="qcurve" smooth="yes"/>
      <point x="862.061" y="466.6"/>
      <point x="956.108" y="389.803"/>
      <point x="977.5" y="326.5" type="qcurve" smooth="yes"/>
      <point x="992.2" y="283"/>
      <point x="992.2" y="230.2" type="qcurve" smooth="yes"/>
      <point x="992.2" y="126.317"/>
      <point x="897.82" y="-25.034"/>
      <point x="819.7" y="-62.5996" type="qcurve" smooth="yes"/>
      <point x="764.8" y="-89"/>
      <point x="695.8" y="-89" type="qcurve" smooth="yes"/>
      <point x="555.426" y="-89"/>
      <point x="451.6" y="13.9004" type="qcurve" smooth="yes"/>
      <point x="341.8" y="122.72"/>
      <point x="341.8" y="298" type="qcurve" smooth="yes"/>
      <point x="341.8" y="445.736"/>
      <point x="424.6" y="579.4" type="qcurve" smooth="yes"/>
      <point x="511.899" y="720.326"/>
      <point x="679" y="829" type="qcurve"/>
      <point x="752.2" y="774.4" type="line"/>
      <point x="752.2" y="772" type="line"/>
      <point x="596.691" y="658.79"/>
      <point x="520" y="544.9" type="qcurve" smooth="yes"/>
      <point x="437.2" y="421.937"/>
      <point x="437.2" y="289" type="qcurve" smooth="yes"/>
      <point x="437.2" y="149.746"/>
      <point x="519.7" y="70.5996" type="qcurve" smooth="yes"/>
      <point x="592.249" y="1"/>
      <point x="697.6" y="1" type="qcurve" smooth="yes"/>
      <point x="798.472" y="1"/>
      <point x="854.8" y="73.5996" type="qcurve"/>
    </contour>
    <contour>
      <point x="895" y="145.6" type="qcurve"/>
      <point x="908.2" y="185.204"/>
      <point x="908.2" y="230.2" type="qcurve" smooth="yes"/>
      <point x="908.2" y="278.066"/>
      <point x="874.122" y="350.645"/>
      <point x="843.4" y="368.2" type="qcurve" smooth="yes"/>
      <point x="822.4" y="380.2"/>
      <point x="795.4" y="380.2" type="qcurve" smooth="yes"/>
      <point x="761.666" y="380.2"/>
      <point x="713.655" y="345.6"/>
      <point x="702.4" y="318.4" type="qcurve" smooth="yes"/>
      <point x="695.2" y="301"/>
      <point x="695.2" y="283.6" type="qcurve" smooth="yes"/>
      <point x="695.2" y="237.598"/>
      <point x="736.6" y="201.1" type="qcurve" smooth="yes"/>
      <point x="789.816" y="154.187"/>
    </contour>
  </outline>
</glyph>
<glyph name="uni1C5A" format="2">
  <advance width="1395"/>
  <unicode hex="1C5A"/>
  <outline>
    <contour>
      <point x="363.8" y="678.6" type="line"/>
      <point x="479.852" y="825.6"/>
      <point x="652.4" y="825.6" type="qcurve" smooth="yes"/>
      <point x="764.203" y="825.6"/>
      <point x="857.9" y="760.2" type="qcurve" smooth="yes"/>
      <point x="997.593" y="662.695"/>
      <point x="1040.9" y="469.2" type="qcurve" smooth="yes"/>
      <point x="1055" y="406.2"/>
      <point x="1055" y="337.8" type="qcurve" smooth="yes"/>
      <point x="1055" y="149.056"/>
      <point x="956" y="28.2002" type="qcurve" smooth="yes"/>
      <point x="858.686" y="-90.5996"/>
      <point x="710.6" y="-90.5996" type="qcurve" smooth="yes"/>
      <point x="550.413" y="-90.5996"/>
      <point x="454.4" y="55.2002" type="qcurve" smooth="yes"/>
      <point x="422" y="104.4"/>
      <point x="400.4" y="171" type="qcurve"/>
      <point x="875.6" y="615" type="line"/>
      <point x="789.325" y="736.8"/>
      <point x="662.6" y="736.8" type="qcurve" smooth="yes"/>
      <point x="605.985" y="736.8"/>
      <point x="511.429" y="696.053"/>
      <point x="479.6" y="663" type="qcurve"/>
      <point x="479.6" y="659.4" type="line"/>
      <point x="609.8" y="464.4" type="line"/>
      <point x="592.4" y="439.2" type="line"/>
      <point x="350" y="439.2" type="line"/>
      <point x="350" y="525.6" type="line"/>
      <point x="468.2" y="525.6" type="line"/>
      <point x="468.2" y="528.6" type="line"/>
      <point x="363.8" y="675" type="line"/>
    </contour>
    <contour>
      <point x="958.4" y="339" type="qcurve" smooth="yes"/>
      <point x="958.4" y="445.056"/>
      <point x="921.8" y="533.4" type="qcurve"/>
      <point x="512" y="148.2" type="line"/>
      <point x="545" y="73.2002"/>
      <point x="643.4" y="-1.7998"/>
      <point x="707" y="-1.7998" type="qcurve" smooth="yes"/>
      <point x="813.075" y="-1.7998"/>
      <point x="884" y="90.9004" type="qcurve" smooth="yes"/>
      <point x="958.4" y="188.141"/>
    </contour>
  </outline>
</glyph>
<glyph name="uni1C5B" format="2">
  <advance width="1455"/>
  <unicode hex="1C5B"/>
  <outline>
    <contour>
      <point x="354" y="369.6" type="qcurve" smooth="yes"/>
      <point x="354" y="566.75"/>
      <point x="459.3" y="696.3" type="qcurve" smooth="yes"/>
      <point x="564.395" y="825.6"/>
      <point x="727.2" y="825.6" type="qcurve" smooth="yes"/>
      <point x="890.605" y="825.6"/>
      <point x="995.7" y="696.3" type="qcurve" smooth="yes"/>
      <point x="1101" y="566.75"/>
      <point x="1101" y="172.265"/>
      <point x="890.453" y="-90.5996"/>
      <point x="727.2" y="-90.5996" type="qcurve" smooth="yes"/>
      <point x="564.547" y="-90.5996"/>
      <point x="354" y="172.265"/>
    </contour>
    <contour>
      <point x="451.2" y="369.6" type="qcurve" smooth="yes"/>
      <point x="451.2" y="290.404"/>
      <point x="491.898" y="154.929"/>
      <point x="566.603" y="55.7639"/>
      <point x="618" y="26.7002" type="qcurve" smooth="yes"/>
      <point x="668.4" y="-1.7998"/>
      <point x="727.2" y="-1.7998" type="qcurve" smooth="yes"/>
      <point x="845.419" y="-1.7998"/>
      <point x="1003.2" y="212.425"/>
      <point x="1003.2" y="526.6"/>
      <point x="845.551" y="736.8"/>
      <point x="727.2" y="736.8" type="qcurve" smooth="yes"/>
      <point x="609.789" y="736.8"/>
      <point x="530.4" y="631.8" type="qcurve" smooth="yes"/>
      <point x="451.2" y="527.051"/>
    </contour>
  </outline>
</glyph>
<glyph name="uni1C5C" format="2">
  <advance width="1389"/>
  <unicode hex="1C5C"/>
  <outline>
    <contour>
      <point x="917.2" y="625.8" type="line"/>
      <point x="840.355" y="736.8"/>
      <point x="716.8" y="736.8" type="qcurve" smooth="yes"/>
      <point x="597.591" y="736.8"/>
      <point x="518.2" y="631.8" type="qcurve" smooth="yes"/>
      <point x="439" y="527.051"/>
      <point x="439" y="369.6" type="qcurve" smooth="yes"/>
      <point x="439" y="208.136"/>
      <point x="523.3" y="102.6" type="qcurve" smooth="yes"/>
      <point x="606.693" y="-1.7998"/>
      <point x="732.4" y="-1.7998" type="qcurve" smooth="yes"/>
      <point x="803.51" y="-1.7998"/>
      <point x="904.081" y="62.2294"/>
      <point x="932.5" y="116.1" type="qcurve" smooth="yes"/>
      <point x="952.6" y="154.2"/>
      <point x="960.4" y="202.2" type="qcurve"/>
      <point x="957.4" y="203.4" type="line"/>
      <point x="889.6" y="179.4"/>
      <point x="824.2" y="179.4" type="qcurve" smooth="yes"/>
      <point x="748.902" y="179.4"/>
      <point x="638.237" y="237.212"/>
      <point x="612.1" y="288.6" type="qcurve" smooth="yes"/>
      <point x="594.4" y="323.4"/>
      <point x="594.4" y="366.6" type="qcurve" smooth="yes"/>
      <point x="594.4" y="413.182"/>
      <point x="633.309" y="485.766"/>
      <point x="692.86" y="528.584"/>
      <point x="733.3" y="541.8" type="qcurve" smooth="yes"/>
      <point x="779.2" y="556.8"/>
      <point x="839.8" y="556.8" type="qcurve" smooth="yes"/>
      <point x="959.797" y="556.8"/>
      <point x="1035.4" y="519" type="qcurve"/>
      <point x="1036.6" y="516" type="line"/>
      <point x="1004.2" y="444" type="line"/>
      <point x="926.205" y="467.4"/>
      <point x="842.8" y="467.4" type="qcurve" smooth="yes"/>
      <point x="732.655" y="467.4"/>
      <point x="695.2" y="405.3" type="qcurve" smooth="yes"/>
      <point x="683.8" y="386.4"/>
      <point x="683.8" y="364.2" type="qcurve" smooth="yes"/>
      <point x="683.8" y="331.347"/>
      <point x="727.998" y="287.825"/>
      <point x="789.811" y="271.2"/>
      <point x="827.8" y="271.2" type="qcurve" smooth="yes"/>
      <point x="914.979" y="271.2"/>
      <point x="1003.3" y="310.2" type="qcurve" smooth="yes"/>
      <point x="1026.4" y="320.4"/>
      <point x="1039.6" y="329.4" type="qcurve"/>
      <point x="1043.2" y="329.4" type="line"/>
      <point x="1052.2" y="287.773"/>
      <point x="1052.2" y="243.6" type="qcurve" smooth="yes"/>
      <point x="1052.2" y="130.202"/>
      <point x="949.422" y="-28.2517"/>
      <point x="862.3" y="-65.4004" type="qcurve" smooth="yes"/>
      <point x="803.2" y="-90.5996"/>
      <point x="731.2" y="-90.5996" type="qcurve" smooth="yes"/>
      <point x="563.713" y="-90.5996"/>
      <point x="453.4" y="38.0996" type="qcurve" smooth="yes"/>
      <point x="341.8" y="168.301"/>
      <point x="341.8" y="370.2" type="qcurve" smooth="yes"/>
      <point x="341.8" y="469.081"/>
      <point x="397.91" y="636.507"/>
      <point x="446.8" y="696" type="qcurve" smooth="yes"/>
      <point x="553.303" y="825.6"/>
      <point x="715.6" y="825.6" type="qcurve" smooth="yes"/>
      <point x="809.921" y="825.6"/>
      <point x="954.402" y="742.698"/>
      <point x="1003.6" y="674.4" type="qcurve"/>
      <point x="1003" y="671.4" type="line"/>
    </contour>
  </outline>
</glyph>
<glyph name="uni1C5D" format="2">
  <advance width="1390"/>
  <unicode hex="1C5D"/>
  <outline>
    <contour>
      <point x="620" y="367.8" type="line"/>
      <point x="871.4" y="611.4" type="line"/>
      <point x="830.449" y="693.298"/>
      <point x="729.8" y="720" type="qcurve" smooth="yes"/>
      <point x="700.4" y="727.8"/>
      <point x="673.4" y="727.8" type="qcurve" smooth="yes"/>
      <point x="592.463" y="727.8"/>
      <point x="530" y="661.8" type="qcurve" smooth="yes"/>
      <point x="463.04" y="591.05"/>
      <point x="430.4" y="450" type="qcurve"/>
      <point x="427.4" y="450" type="line"/>
      <point x="347" y="487.8" type="line"/>
      <point x="376.534" y="636.65"/>
      <point x="467.6" y="729" type="qcurve" smooth="yes"/>
      <point x="556.35" y="819"/>
      <point x="671" y="819" type="qcurve" smooth="yes"/>
      <point x="762.953" y="819"/>
      <point x="846.2" y="762.9" type="qcurve" smooth="yes"/>
      <point x="935.445" y="702.756"/>
      <point x="985.4" y="598.2" type="qcurve"/>
      <point x="985.4" y="594.6" type="line"/>
      <point x="744.8" y="367.8" type="line"/>
      <point x="744.8" y="364.2" type="line"/>
      <point x="985.4" y="137.4" type="line"/>
      <point x="985.4" y="134.4" type="line"/>
      <point x="926.671" y="20.397"/>
      <point x="844.1" y="-35.7002" type="qcurve" smooth="yes"/>
      <point x="768.592" y="-87"/>
      <point x="678.2" y="-87" type="qcurve" smooth="yes"/>
      <point x="558.233" y="-87"/>
      <point x="469.4" y="0.599609" type="qcurve" smooth="yes"/>
      <point x="379.1" y="89.6467"/>
      <point x="347" y="244.2" type="qcurve"/>
      <point x="427.4" y="282.6" type="line"/>
      <point x="430.4" y="282.6" type="line"/>
      <point x="462.474" y="142.849"/>
      <point x="529.7" y="70.5" type="qcurve" smooth="yes"/>
      <point x="591.305" y="4.2002"/>
      <point x="673.4" y="4.2002" type="qcurve" smooth="yes"/>
      <point x="765.724" y="4.2002"/>
      <point x="835.1" y="70.7998" type="qcurve" smooth="yes"/>
      <point x="857.6" y="92.4004"/>
      <point x="871.4" y="120.6" type="qcurve"/>
      <point x="620" y="364.2" type="line"/>
    </contour>
    <contour>
      <point x="887" y="406.8" type="line"/>
      <point x="1058" y="406.8" type="line"/>
      <point x="1058" y="325.2" type="line"/>
      <point x="887" y="325.2" type="line"/>
    </contour>
  </outline>
</glyph>
<glyph name="uni1C5E" format="2">
  <advance width="1232"/>
  <unicode hex="1C5E"/>
  <outline>
    <contour>
      <point x="438.4" y="186.4" type="line"/>
      <point x="438.4" y="-61.4004" type="line"/>
      <point x="342.4" y="-61.4004" type="line"/>
      <point x="342.4" y="811.6" type="line"/>
      <point x="438.4" y="811.6" type="line"/>
      <point x="438.4" y="701.2" type="line"/>
      <point x="442" y="701.2" type="line"/>
      <point x="668.2" y="834.4" type="line"/>
      <point x="671.8" y="834.4" type="line"/>
      <point x="762.133" y="793.577"/>
      <point x="888.694" y="655.458"/>
      <point x="916.9" y="560.8" type="qcurve" smooth="yes"/>
      <point x="934.6" y="501.4"/>
      <point x="934.6" y="438.4" type="qcurve" smooth="yes"/>
      <point x="934.6" y="246.719"/>
      <point x="785.5" y="115" type="qcurve" smooth="yes"/>
      <point x="736.6" y="71.7998"/>
      <point x="671.8" y="39.4004" type="qcurve"/>
      <point x="668.2" y="39.4004" type="line"/>
      <point x="442" y="186.4" type="line"/>
    </contour>
    <contour>
      <point x="438.4" y="598" type="line"/>
      <point x="438.4" y="293.2" type="line"/>
      <point x="662.2" y="145.6" type="line"/>
      <point x="665.8" y="145.6" type="line"/>
      <point x="791.939" y="217.43"/>
      <point x="827.2" y="352.6" type="qcurve" smooth="yes"/>
      <point x="838" y="394"/>
      <point x="838" y="436.6" type="qcurve" smooth="yes"/>
      <point x="838" y="572.245"/>
      <point x="742.3" y="669.7" type="qcurve" smooth="yes"/>
      <point x="709.6" y="703"/>
      <point x="665.8" y="728.2" type="qcurve"/>
      <point x="662.2" y="728.2" type="line"/>
    </contour>
  </outline>
</glyph>
<glyph name="uni1C5F" format="2">
  <advance width="1633"/>
  <unicode hex="1C5F"/>
  <outline>
    <contour>
      <point x="1146" y="335.6" type="qcurve" smooth="yes"/>
      <point x="1146" y="563.358"/>
      <point x="1044.6" y="681.2" type="qcurve"/>
      <point x="1041" y="681.2" type="line"/>
      <point x="967.8" y="591.8" type="line"/>
      <point x="1013.4" y="479.649"/>
      <point x="1013.4" y="338" type="qcurve" smooth="yes"/>
      <point x="1013.4" y="148.374"/>
      <point x="929.4" y="28.0996" type="qcurve" smooth="yes"/>
      <point x="846.217" y="-91"/>
      <point x="714.6" y="-91" type="qcurve" smooth="yes"/>
      <point x="582.735" y="-91"/>
      <point x="501" y="25.0996" type="qcurve" smooth="yes"/>
      <point x="474.6" y="62.5996"/>
      <point x="458.4" y="110.6" type="qcurve"/>
      <point x="857.4" y="601.4" type="line"/>
      <point x="825.6" y="672.2"/>
      <point x="736.8" y="735.2"/>
      <point x="686.4" y="735.2" type="qcurve" smooth="yes"/>
      <point x="603.722" y="735.2"/>
      <point x="526.2" y="662.6" type="qcurve"/>
      <point x="526.2" y="659" type="line"/>
      <point x="656.4" y="464" type="line"/>
      <point x="639" y="438.8" type="line"/>
      <point x="396.6" y="438.8" type="line"/>
      <point x="396.6" y="525.2" type="line"/>
      <point x="514.8" y="525.2" type="line"/>
      <point x="514.8" y="528.2" type="line"/>
      <point x="410.4" y="674.6" type="line"/>
      <point x="410.4" y="678.2" type="line"/>
      <point x="488.209" y="786.073"/>
      <point x="602.7" y="815.9" type="qcurve" smooth="yes"/>
      <point x="638.4" y="825.2"/>
      <point x="673.8" y="825.2" type="qcurve" smooth="yes"/>
      <point x="824.085" y="825.2"/>
      <point x="920.4" y="678.8" type="qcurve"/>
      <point x="1031.4" y="814.4" type="line"/>
      <point x="1241.4" y="661.668"/>
      <point x="1241.4" y="332.6" type="qcurve" smooth="yes"/>
      <point x="1241.4" y="141.116"/>
      <point x="1176.6" y="-7" type="qcurve" smooth="yes"/>
      <point x="1155.6" y="-55"/>
      <point x="1128.6" y="-92.2002" type="qcurve"/>
      <point x="1046.4" y="-38.2002" type="line"/>
      <point x="1116.55" y="54.7114"/>
      <point x="1138.8" y="223.4" type="qcurve" smooth="yes"/>
      <point x="1146" y="278"/>
    </contour>
    <contour>
      <point x="569.4" y="99.7998" type="line"/>
      <point x="621.586" y="-2.2002"/>
      <point x="714.6" y="-2.2002" type="qcurve" smooth="yes"/>
      <point x="802.281" y="-2.2002"/>
      <point x="859.2" y="91.4004" type="qcurve" smooth="yes"/>
      <point x="916.8" y="186.118"/>
      <point x="916.8" y="336.8" type="qcurve" smooth="yes"/>
      <point x="916.8" y="423.72"/>
      <point x="897.6" y="501.8" type="qcurve"/>
      <point x="894.6" y="502.4" type="line"/>
    </contour>
  </outline>
</glyph>
<glyph name="uni1C60" format="2">
  <advance width="1228"/>
  <unicode hex="1C60"/>
  <outline>
    <contour>
      <point x="433.6" y="548.6" type="line"/>
      <point x="437.2" y="548.6" type="line"/>
      <point x="664" y="695.6" type="line"/>
      <point x="667.6" y="695.6" type="line"/>
      <point x="860.654" y="598.172"/>
      <point x="913.6" y="415.7" type="qcurve" smooth="yes"/>
      <point x="930.4" y="357.8"/>
      <point x="930.4" y="296.6" type="qcurve" smooth="yes"/>
      <point x="930.4" y="169.767"/>
      <point x="861.4" y="63.7998" type="qcurve" smooth="yes"/>
      <point x="790.537" y="-45.0234"/>
      <point x="667.6" y="-99.4004" type="qcurve"/>
      <point x="664" y="-99.4004" type="line"/>
      <point x="337.6" y="91.4004" type="line"/>
      <point x="337.6" y="796.4" type="line"/>
      <point x="433.6" y="796.4" type="line"/>
    </contour>
    <contour>
      <point x="433.6" y="440" type="line"/>
      <point x="433.6" y="137.6" type="line"/>
      <point x="657.4" y="8" type="line"/>
      <point x="661" y="8" type="line"/>
      <point x="789.041" y="82.4007"/>
      <point x="823.3" y="216.5" type="qcurve" smooth="yes"/>
      <point x="833.8" y="257.6"/>
      <point x="833.8" y="298.4" type="qcurve" smooth="yes"/>
      <point x="833.8" y="432.801"/>
      <point x="736.6" y="530.9" type="qcurve" smooth="yes"/>
      <point x="704.2" y="563.6"/>
      <point x="661" y="588.2" type="qcurve"/>
      <point x="657.4" y="588.2" type="line"/>
    </contour>
  </outline>
</glyph>
<glyph name="uni1C61" format="2">
  <advance width="1310"/>
  <unicode hex="1C61"/>
  <outline>
    <contour>
      <point x="989" y="343.2" type="qcurve" smooth="yes"/>
      <point x="989" y="260.391"/>
      <point x="952.351" y="124.709"/>
      <point x="881.862" y="22.5831"/>
      <point x="791.816" y="-52.7714"/>
      <point x="732.2" y="-83.4004" type="qcurve"/>
      <point x="729.2" y="-83.4004" type="line"/>
      <point x="455.6" y="121.8" type="line"/>
      <point x="452" y="121.8" type="line"/>
      <point x="452" y="-66.5996" type="line"/>
      <point x="356" y="-66.5996" type="line"/>
      <point x="356" y="806.4" type="line"/>
      <point x="452" y="806.4" type="line"/>
      <point x="452" y="237.6" type="line"/>
      <point x="734" y="28.7998" type="line"/>
      <point x="737.6" y="28.7998" type="line"/>
      <point x="891.8" y="120.036"/>
      <point x="891.8" y="341.4" type="qcurve" smooth="yes"/>
      <point x="891.8" y="503.071"/>
      <point x="816.2" y="668.1" type="qcurve" smooth="yes"/>
      <point x="791.6" y="721.8"/>
      <point x="759.8" y="770.4" type="qcurve"/>
      <point x="759.8" y="772.8" type="line"/>
      <point x="833" y="830.4" type="line"/>
      <point x="942.414" y="681.369"/>
      <point x="977.6" y="475.8" type="qcurve" smooth="yes"/>
      <point x="989" y="409.2"/>
    </contour>
  </outline>
</glyph>
<glyph name="uni1C62" format="2">
  <advance width="1310"/>
  <unicode hex="1C62"/>
  <outline>
    <contour>
      <point x="418.2" y="341.4" type="qcurve" smooth="yes"/>
      <point x="418.2" y="120.036"/>
      <point x="572.4" y="28.7998" type="qcurve"/>
      <point x="575.4" y="28.7998" type="line"/>
      <point x="858" y="237.6" type="line"/>
      <point x="858" y="806.4" type="line"/>
      <point x="954" y="806.4" type="line"/>
      <point x="954" y="-66.5996" type="line"/>
      <point x="858" y="-66.5996" type="line"/>
      <point x="858" y="121.8" type="line"/>
      <point x="854.4" y="121.8" type="line"/>
      <point x="580.8" y="-83.4004" type="line"/>
      <point x="577.2" y="-83.4004" type="line"/>
      <point x="517.762" y="-52.8628"/>
      <point x="427.815" y="22.6549"/>
      <point x="357.565" y="124.875"/>
      <point x="321" y="260.538"/>
      <point x="321" y="343.2" type="qcurve" smooth="yes"/>
      <point x="321" y="540.532"/>
      <point x="413.1" y="725.7" type="qcurve" smooth="yes"/>
      <point x="441.6" y="783"/>
      <point x="477" y="830.4" type="qcurve"/>
      <point x="550.2" y="772.8" type="line"/>
      <point x="550.2" y="770.4" type="line"/>
      <point x="454.668" y="624.395"/>
      <point x="426.9" y="448.2" type="qcurve" smooth="yes"/>
      <point x="418.2" y="393"/>
    </contour>
  </outline>
</glyph>
<glyph name="uni1C63" format="2">
  <advance width="1397"/>
  <unicode hex="1C63"/>
  <outline>
    <contour>
      <point x="365" y="238.8" type="qcurve" smooth="yes"/>
      <point x="365" y="305.27"/>
      <point x="385.4" y="374.4" type="qcurve"/>
      <point x="389" y="374.4" type="line"/>
      <point x="436.293" y="317.255"/>
      <point x="499.7" y="295.2" type="qcurve" smooth="yes"/>
      <point x="520.4" y="288"/>
      <point x="540.2" y="288" type="qcurve" smooth="yes"/>
      <point x="622.797" y="288"/>
      <point x="651.2" y="396.6" type="qcurve" smooth="yes"/>
      <point x="661.4" y="435.6"/>
      <point x="661.4" y="492.6" type="qcurve" smooth="yes"/>
      <point x="661.4" y="654.954"/>
      <point x="585.5" y="705.9" type="qcurve" smooth="yes"/>
      <point x="563.6" y="720.6"/>
      <point x="539.6" y="720.6" type="qcurve" smooth="yes"/>
      <point x="499.467" y="720.6"/>
      <point x="428.631" y="640.909"/>
      <point x="409.4" y="574.8" type="qcurve"/>
      <point x="328.4" y="617.4" type="line"/>
      <point x="360.75" y="717.798"/>
      <point x="420.2" y="768" type="qcurve" smooth="yes"/>
      <point x="470.648" y="810.6"/>
      <point x="533.6" y="810.6" type="qcurve" smooth="yes"/>
      <point x="627.016" y="810.6"/>
      <point x="690.8" y="721.8" type="qcurve" smooth="yes"/>
      <point x="756.8" y="629.92"/>
      <point x="756.8" y="483" type="qcurve" smooth="yes"/>
      <point x="756.8" y="342.254"/>
      <point x="697.1" y="265.5" type="qcurve" smooth="yes"/>
      <point x="643.2" y="196.2"/>
      <point x="561.2" y="196.2" type="qcurve" smooth="yes"/>
      <point x="506" y="196.2"/>
      <point x="454.4" y="229.2" type="qcurve"/>
      <point x="451.4" y="227.4" type="line"/>
      <point x="451.4" y="151.419"/>
      <point x="530.189" y="43.5485"/>
      <point x="592.4" y="17.7002" type="qcurve" smooth="yes"/>
      <point x="635" y="0"/>
      <point x="685.4" y="0" type="qcurve" smooth="yes"/>
      <point x="798.415" y="0"/>
      <point x="870.2" y="87.5996" type="qcurve" smooth="yes"/>
      <point x="946.4" y="180.592"/>
      <point x="946.4" y="340.2" type="qcurve" smooth="yes"/>
      <point x="946.4" y="494.924"/>
      <point x="882.5" y="666.6" type="qcurve" smooth="yes"/>
      <point x="862.4" y="720.6"/>
      <point x="837.8" y="768" type="qcurve"/>
      <point x="837.8" y="770.4" type="line"/>
      <point x="911" y="828" type="line"/>
      <point x="1005.41" y="675.896"/>
      <point x="1034.9" y="459.3" type="qcurve" smooth="yes"/>
      <point x="1043.6" y="395.4"/>
      <point x="1043.6" y="339.6" type="qcurve" smooth="yes"/>
      <point x="1043.6" y="194.168"/>
      <point x="935.704" y="-12.927"/>
      <point x="836.6" y="-59.7002" type="qcurve" smooth="yes"/>
      <point x="772.4" y="-90"/>
      <point x="695.6" y="-90" type="qcurve" smooth="yes"/>
      <point x="555.941" y="-90"/>
      <point x="461.3" y="2.09961" type="qcurve" smooth="yes"/>
      <point x="365" y="95.8138"/>
    </contour>
  </outline>
</glyph>
<glyph name="uni1C64" format="2">
  <advance width="1234"/>
  <unicode hex="1C64"/>
  <outline>
    <contour>
      <point x="282.8" y="673.8" type="line"/>
      <point x="335.95" y="743.524"/>
      <point x="499.5" y="828"/>
      <point x="602.6" y="828" type="qcurve" smooth="yes"/>
      <point x="798.8" y="828"/>
      <point x="921.2" y="656.4" type="qcurve"/>
      <point x="855.8" y="570" type="line"/>
      <point x="855.8" y="-66.5996" type="line"/>
      <point x="761" y="-66.5996" type="line"/>
      <point x="761" y="445.2" type="line"/>
      <point x="757.4" y="445.2" type="line"/>
      <point x="363.8" y="-81" type="line"/>
      <point x="288.2" y="-22.2002" type="line"/>
      <point x="801.8" y="663.6" type="line"/>
      <point x="716.71" y="741.6"/>
      <point x="601.4" y="741.6" type="qcurve" smooth="yes"/>
      <point x="526.4" y="741.6"/>
      <point x="406.4" y="678"/>
      <point x="356" y="618" type="qcurve"/>
      <point x="353" y="618" type="line"/>
    </contour>
  </outline>
</glyph>
<glyph name="uni1C65" format="2">
  <advance width="1234"/>
  <unicode hex="1C65"/>
  <outline>
    <contour>
      <point x="951.2" y="61.2002" type="line"/>
      <point x="925.648" y="27.6798"/>
      <point x="860.833" y="-27.1202"/>
      <point x="781.21" y="-69.5685"/>
      <point x="684.131" y="-93"/>
      <point x="631.4" y="-93" type="qcurve" smooth="yes"/>
      <point x="435.2" y="-93"/>
      <point x="312.8" y="78.5996" type="qcurve"/>
      <point x="378.2" y="165" type="line"/>
      <point x="378.2" y="801.6" type="line"/>
      <point x="473" y="801.6" type="line"/>
      <point x="473" y="289.8" type="line"/>
      <point x="476.6" y="289.8" type="line"/>
      <point x="870.2" y="816" type="line"/>
      <point x="945.8" y="757.2" type="line"/>
      <point x="432.2" y="71.4004" type="line"/>
      <point x="517.29" y="-6.59961"/>
      <point x="632.6" y="-6.59961" type="qcurve" smooth="yes"/>
      <point x="707.6" y="-6.59961"/>
      <point x="827.6" y="57"/>
      <point x="878" y="117" type="qcurve"/>
      <point x="881" y="117" type="line"/>
    </contour>
  </outline>
</glyph>
<glyph name="uni1C66" format="2">
  <advance width="1545"/>
  <unicode hex="1C66"/>
  <outline>
    <contour>
      <point x="475.2" y="358.8" type="qcurve" smooth="yes"/>
      <point x="475.2" y="253.386"/>
      <point x="539.437" y="91.6043"/>
      <point x="600" y="48" type="qcurve"/>
      <point x="603.6" y="48" type="line"/>
      <point x="771" y="278.4" type="line"/>
      <point x="774.6" y="278.4" type="line"/>
      <point x="942" y="48" type="line"/>
      <point x="945" y="48" type="line"/>
      <point x="985.244" y="77.5659"/>
      <point x="1041.27" y="169.92"/>
      <point x="1069.8" y="288.898"/>
      <point x="1069.8" y="358.8" type="qcurve" smooth="yes"/>
      <point x="1069.8" y="525.916"/>
      <point x="979.5" y="678" type="qcurve" smooth="yes"/>
      <point x="951" y="726"/>
      <point x="915" y="770.4" type="qcurve"/>
      <point x="915" y="772.8" type="line"/>
      <point x="988.2" y="830.4" type="line"/>
      <point x="1116.42" y="687.312"/>
      <point x="1154.4" y="493.8" type="qcurve" smooth="yes"/>
      <point x="1167" y="429.6"/>
      <point x="1167" y="362.4" type="qcurve" smooth="yes"/>
      <point x="1167" y="205.95"/>
      <point x="1043.21" y="-15.8159"/>
      <point x="934.2" y="-83.4004" type="qcurve"/>
      <point x="930.6" y="-83.4004" type="line"/>
      <point x="774.6" y="127.8" type="line"/>
      <point x="771" y="127.8" type="line"/>
      <point x="614.4" y="-83.4004" type="line"/>
      <point x="610.8" y="-83.4004" type="line"/>
      <point x="501.419" y="-16.2549"/>
      <point x="378" y="205.561"/>
      <point x="378" y="362.4" type="qcurve" smooth="yes"/>
      <point x="378" y="560.611"/>
      <point x="482.4" y="730.5" type="qcurve" smooth="yes"/>
      <point x="515.4" y="784.2"/>
      <point x="556.8" y="830.4" type="qcurve"/>
      <point x="630" y="772.8" type="line"/>
      <point x="630" y="770.4" type="line"/>
      <point x="517.099" y="631.155"/>
      <point x="486" y="472.2" type="qcurve" smooth="yes"/>
      <point x="475.2" y="417"/>
    </contour>
  </outline>
</glyph>
<glyph name="uni1C67" format="2">
  <advance width="1228"/>
  <unicode hex="1C67"/>
  <outline>
    <contour>
      <point x="794.4" y="186.4" type="line"/>
      <point x="790.8" y="186.4" type="line"/>
      <point x="564" y="39.4004" type="line"/>
      <point x="560.4" y="39.4004" type="line"/>
      <point x="434.416" y="102.391"/>
      <point x="364.5" y="210.1" type="qcurve" smooth="yes"/>
      <point x="297.6" y="313.165"/>
      <point x="297.6" y="438.4" type="qcurve" smooth="yes"/>
      <point x="297.6" y="635.305"/>
      <point x="449.1" y="764.5" type="qcurve" smooth="yes"/>
      <point x="498" y="806.2"/>
      <point x="560.4" y="834.4" type="qcurve"/>
      <point x="564" y="834.4" type="line"/>
      <point x="890.4" y="643.6" type="line"/>
      <point x="890.4" y="-61.4004" type="line"/>
      <point x="794.4" y="-61.4004" type="line"/>
    </contour>
    <contour>
      <point x="570.6" y="146.8" type="line"/>
      <point x="794.4" y="294.4" type="line"/>
      <point x="794.4" y="596.8" type="line"/>
      <point x="570.6" y="727" type="line"/>
      <point x="567" y="727" type="line"/>
      <point x="439.476" y="654.622"/>
      <point x="404.7" y="518.5" type="qcurve" smooth="yes"/>
      <point x="394.2" y="477.4"/>
      <point x="394.2" y="436.6" type="qcurve" smooth="yes"/>
      <point x="394.2" y="302.199"/>
      <point x="491.4" y="204.1" type="qcurve" smooth="yes"/>
      <point x="523.8" y="171.4"/>
      <point x="567" y="146.8" type="qcurve"/>
    </contour>
  </outline>
</glyph>
<glyph name="uni1C68" format="2">
  <advance width="1119"/>
  <unicode hex="1C68"/>
  <outline>
    <contour>
      <point x="706.2" y="211.8" type="line"/>
      <point x="726" y="269.965"/>
      <point x="726" y="330" type="qcurve" smooth="yes"/>
      <point x="726" y="462.193"/>
      <point x="626.7" y="567.3" type="qcurve" smooth="yes"/>
      <point x="518.095" y="682.256"/>
      <point x="302.4" y="748.8" type="qcurve"/>
      <point x="302.4" y="751.2" type="line"/>
      <point x="345.6" y="830.4" type="line"/>
      <point x="564.59" y="774.765"/>
      <point x="695.4" y="635.7" type="qcurve" smooth="yes"/>
      <point x="823.2" y="499.835"/>
      <point x="823.2" y="331.8" type="qcurve" smooth="yes"/>
      <point x="823.2" y="216.039"/>
      <point x="766.2" y="105.6" type="qcurve" smooth="yes"/>
      <point x="702.571" y="-17.6821"/>
      <point x="590.4" y="-83.4004" type="qcurve"/>
      <point x="586.8" y="-83.4004" type="line"/>
      <point x="436.2" y="87" type="line"/>
      <point x="432.6" y="87" type="line"/>
      <point x="328.8" y="-83.4004" type="line"/>
      <point x="325.8" y="-83.4004" type="line"/>
      <point x="250.8" y="-31.7998" type="line"/>
      <point x="415.8" y="239.4" type="line"/>
      <point x="419.4" y="239.4" type="line"/>
      <point x="592.2" y="49.2002" type="line"/>
      <point x="595.2" y="49.2002" type="line"/>
      <point x="625.905" y="68.6457"/>
      <point x="662.4" y="121.2" type="qcurve"/>
      <point x="282" y="553.2" type="line"/>
      <point x="346.8" y="613.2" type="line"/>
      <point x="350.4" y="613.2" type="line"/>
      <point x="702.6" y="210.6" type="line"/>
    </contour>
  </outline>
</glyph>
<glyph name="uni1C69" format="2">
  <advance width="1222"/>
  <unicode hex="1C69"/>
  <outline>
    <contour>
      <point x="427.4" y="537.2" type="line"/>
      <point x="654.2" y="695.6" type="line"/>
      <point x="657.8" y="695.6" type="line"/>
      <point x="850.84" y="598.179"/>
      <point x="903.8" y="416.6" type="qcurve" smooth="yes"/>
      <point x="920.6" y="359"/>
      <point x="920.6" y="297.8" type="qcurve" smooth="yes"/>
      <point x="920.6" y="100.225"/>
      <point x="765.5" y="-29.7998" type="qcurve" smooth="yes"/>
      <point x="715.4" y="-71.7998"/>
      <point x="651.8" y="-99.4004" type="qcurve"/>
      <point x="648.2" y="-99.4004" type="line"/>
      <point x="316.4" y="87.7998" type="line"/>
      <point x="362" y="164" type="line"/>
      <point x="641.6" y="8" type="line"/>
      <point x="645.2" y="8" type="line"/>
      <point x="777.931" y="83.3353"/>
      <point x="812.9" y="214.7" type="qcurve" smooth="yes"/>
      <point x="824" y="256.4"/>
      <point x="824" y="300.2" type="qcurve" smooth="yes"/>
      <point x="824" y="432.802"/>
      <point x="733.1" y="530.9" type="qcurve" smooth="yes"/>
      <point x="702.8" y="563.6"/>
      <point x="662.6" y="588.2" type="qcurve"/>
      <point x="659" y="588.2" type="line"/>
      <point x="405.8" y="413" type="line"/>
      <point x="327.8" y="413" type="line"/>
      <point x="327.8" y="796.4" type="line"/>
      <point x="423.8" y="796.4" type="line"/>
      <point x="423.8" y="537.2" type="line"/>
    </contour>
  </outline>
</glyph>
<glyph name="uni1C6A" format="2">
  <advance width="1398"/>
  <unicode hex="1C6A"/>
  <outline>
    <contour>
      <point x="920.4" y="313.2" type="line"/>
      <point x="1082.4" y="127.2" type="line"/>
      <point x="992.28" y="-28.6273"/>
      <point x="818.4" y="-75.2998" type="qcurve" smooth="yes"/>
      <point x="761.4" y="-90.5996"/>
      <point x="699.6" y="-90.5996" type="qcurve" smooth="yes"/>
      <point x="512.399" y="-90.5996"/>
      <point x="384.6" y="37.2002" type="qcurve" smooth="yes"/>
      <point x="344.4" y="77.4004"/>
      <point x="315.6" y="127.2" type="qcurve"/>
      <point x="477.6" y="314.4" type="line"/>
      <point x="477.6" y="609.6" type="line" smooth="yes"/>
      <point x="477.6" y="681.734"/>
      <point x="552.037" y="783.563"/>
      <point x="611.1" y="808.5" type="qcurve" smooth="yes"/>
      <point x="651.6" y="825.6"/>
      <point x="699" y="825.6" type="qcurve" smooth="yes"/>
      <point x="792.498" y="825.6"/>
      <point x="857.1" y="762.3" type="qcurve" smooth="yes"/>
      <point x="920.4" y="700.279"/>
      <point x="920.4" y="609.6" type="qcurve" smooth="yes"/>
    </contour>
    <contour>
      <point x="828.6" y="609.6" type="line" smooth="yes"/>
      <point x="828.6" y="651.339"/>
      <point x="782.808" y="714.504"/>
      <point x="748.8" y="730.2" type="qcurve" smooth="yes"/>
      <point x="725.4" y="741"/>
      <point x="699" y="741" type="qcurve" smooth="yes"/>
      <point x="670.329" y="741"/>
      <point x="620.77" y="717.223"/>
      <point x="588.636" y="681.527"/>
      <point x="578.7" y="659.1" type="qcurve" smooth="yes"/>
      <point x="568.2" y="635.4"/>
      <point x="568.2" y="609.6" type="qcurve" smooth="yes"/>
      <point x="568.2" y="319.8" type="line" smooth="yes"/>
      <point x="568.2" y="285.582"/>
      <point x="614.549" y="237.209"/>
      <point x="647.4" y="225.3" type="qcurve" smooth="yes"/>
      <point x="671.4" y="216.6"/>
      <point x="698.4" y="216.6" type="qcurve" smooth="yes"/>
      <point x="739.022" y="216.6"/>
      <point x="802.394" y="251.954"/>
      <point x="818.4" y="280.2" type="qcurve" smooth="yes"/>
      <point x="828.6" y="298.2"/>
      <point x="828.6" y="317.4" type="qcurve" smooth="yes"/>
    </contour>
    <contour>
      <point x="432" y="124.8" type="line"/>
      <point x="534.298" y="-1.2002"/>
      <point x="699" y="-1.2002" type="qcurve" smooth="yes"/>
      <point x="864.19" y="-1.2002"/>
      <point x="966" y="124.2" type="qcurve"/>
      <point x="885.6" y="213.6" type="line"/>
      <point x="857.038" y="174.922"/>
      <point x="759.608" y="127.8"/>
      <point x="638.408" y="127.8"/>
      <point x="540.951" y="174.936"/>
      <point x="512.4" y="213.6" type="qcurve"/>
    </contour>
  </outline>
</glyph>
<glyph name="uni1C6B" format="2">
  <advance width="1513"/>
  <unicode hex="1C6B"/>
  <outline>
    <contour>
      <point x="651.8" y="353.2" type="line"/>
      <point x="610.4" y="272.2" type="line"/>
      <point x="487.77" y="285.826"/>
      <point x="422.9" y="344.8" type="qcurve" smooth="yes"/>
      <point x="365.6" y="396.891"/>
      <point x="365.6" y="473.2" type="qcurve" smooth="yes"/>
      <point x="365.6" y="523.6"/>
      <point x="392.9" y="577" type="qcurve" smooth="yes"/>
      <point x="449.356" y="687.432"/>
      <point x="593.9" y="766.6" type="qcurve" smooth="yes"/>
      <point x="666.2" y="806.2"/>
      <point x="756.2" y="829.6" type="qcurve"/>
      <point x="929.043" y="785.519"/>
      <point x="1041.2" y="679.3" type="qcurve" smooth="yes"/>
      <point x="1092.2" y="631"/>
      <point x="1147.4" y="523.6"/>
      <point x="1147.4" y="472.6" type="qcurve" smooth="yes"/>
      <point x="1147.4" y="350.404"/>
      <point x="1013.3" y="295.9" type="qcurve" smooth="yes"/>
      <point x="966.8" y="277"/>
      <point x="902.6" y="272.2" type="qcurve"/>
      <point x="861.2" y="353.2" type="line"/>
      <point x="863" y="355.6" type="line"/>
      <point x="958.624" y="363.569"/>
      <point x="1008.5" y="397.9" type="qcurve" smooth="yes"/>
      <point x="1052.6" y="428.254"/>
      <point x="1052.6" y="475" type="qcurve" smooth="yes"/>
      <point x="1052.6" y="504.4"/>
      <point x="1033.4" y="541" type="qcurve" smooth="yes"/>
      <point x="992.788" y="618.416"/>
      <point x="883.4" y="685" type="qcurve" smooth="yes"/>
      <point x="828.2" y="718.6"/>
      <point x="756.2" y="742.6" type="qcurve"/>
      <point x="623.138" y="698.992"/>
      <point x="537.2" y="615.1" type="qcurve" smooth="yes"/>
      <point x="499.4" y="578.2"/>
      <point x="460.4" y="505"/>
      <point x="460.4" y="474.4" type="qcurve" smooth="yes"/>
      <point x="460.4" y="426.4"/>
      <point x="507.2" y="394" type="qcurve" smooth="yes"/>
      <point x="557.662" y="359.064"/>
      <point x="650" y="355.6" type="qcurve"/>
    </contour>
    <contour>
      <point x="802.4" y="121" type="line"/>
      <point x="764.037" y="81.4004"/>
      <point x="693.8" y="81.4004" type="qcurve" smooth="yes"/>
      <point x="635" y="81.4004"/>
      <point x="579.2" y="110.2" type="qcurve"/>
      <point x="576.2" y="108.4" type="line"/>
      <point x="589.973" y="72.8189"/>
      <point x="637.022" y="21.2146"/>
      <point x="709.302" y="-9.2002"/>
      <point x="754.4" y="-9.2002" type="qcurve" smooth="yes"/>
      <point x="825.8" y="-9.2002"/>
      <point x="912.8" y="73.5996"/>
      <point x="938" y="161.8" type="qcurve"/>
      <point x="941.6" y="161.8" type="line"/>
      <point x="1011.2" y="106" type="line"/>
      <point x="963.846" y="-34.1702"/>
      <point x="847.1" y="-75.7998" type="qcurve" smooth="yes"/>
      <point x="808.4" y="-89.5996"/>
      <point x="762.8" y="-89.5996" type="qcurve" smooth="yes"/>
      <point x="653.46" y="-89.5996"/>
      <point x="578.3" y="-19.0996" type="qcurve" smooth="yes"/>
      <point x="490.4" y="63.3478"/>
      <point x="490.4" y="212.8" type="qcurve"/>
      <point x="501.8" y="220" type="line"/>
      <point x="567.737" y="177.064"/>
      <point x="638.3" y="166.3" type="qcurve" smooth="yes"/>
      <point x="656" y="163.6"/>
      <point x="668" y="163.6" type="qcurve" smooth="yes"/>
      <point x="702.092" y="163.6"/>
      <point x="710.6" y="179.2" type="qcurve"/>
      <point x="710.6" y="560.2" type="line"/>
      <point x="802.4" y="560.2" type="line"/>
    </contour>
  </outline>
</glyph>
<glyph name="uni1C6C" format="2">
  <advance width="1545"/>
  <unicode hex="1C6C"/>
  <outline>
    <contour>
      <point x="1069.8" y="376.2" type="qcurve" smooth="yes"/>
      <point x="1069.8" y="446.103"/>
      <point x="1041.27" y="565.08"/>
      <point x="985.244" y="657.434"/>
      <point x="945" y="687" type="qcurve"/>
      <point x="941.4" y="687" type="line"/>
      <point x="774" y="456.6" type="line"/>
      <point x="770.4" y="456.6" type="line"/>
      <point x="603" y="687" type="line"/>
      <point x="600" y="687" type="line"/>
      <point x="539.437" y="643.396"/>
      <point x="475.2" y="481.613"/>
      <point x="475.2" y="376.2" type="qcurve" smooth="yes"/>
      <point x="475.2" y="209.084"/>
      <point x="565.5" y="57" type="qcurve" smooth="yes"/>
      <point x="594" y="9"/>
      <point x="630" y="-35.4004" type="qcurve"/>
      <point x="630" y="-37.7998" type="line"/>
      <point x="556.8" y="-95.4004" type="line"/>
      <point x="428.58" y="47.6877"/>
      <point x="390.6" y="241.2" type="qcurve" smooth="yes"/>
      <point x="378" y="305.4"/>
      <point x="378" y="372.6" type="qcurve" smooth="yes"/>
      <point x="378" y="588.953"/>
      <point x="506.4" y="732.3" type="qcurve" smooth="yes"/>
      <point x="550.2" y="781.2"/>
      <point x="610.8" y="818.4" type="qcurve"/>
      <point x="614.4" y="818.4" type="line"/>
      <point x="770.4" y="607.2" type="line"/>
      <point x="774" y="607.2" type="line"/>
      <point x="930.6" y="818.4" type="line"/>
      <point x="934.2" y="818.4" type="line"/>
      <point x="1167" y="674.064"/>
      <point x="1167" y="372.6" type="qcurve" smooth="yes"/>
      <point x="1167" y="174.389"/>
      <point x="1062.6" y="4.5" type="qcurve" smooth="yes"/>
      <point x="1029.6" y="-49.2002"/>
      <point x="988.2" y="-95.4004" type="qcurve"/>
      <point x="915" y="-37.7998" type="line"/>
      <point x="915" y="-35.4004" type="line"/>
      <point x="1027.75" y="103.665"/>
      <point x="1059" y="262.5" type="qcurve" smooth="yes"/>
      <point x="1069.8" y="317.4"/>
    </contour>
  </outline>
</glyph>
<glyph name="uni1C6D" format="2">
  <advance width="1397"/>
  <unicode hex="1C6D"/>
  <outline>
    <contour>
      <point x="1032" y="496.2" type="qcurve" smooth="yes"/>
      <point x="1032" y="429.73"/>
      <point x="1011.6" y="360.6" type="qcurve"/>
      <point x="1008" y="360.6" type="line"/>
      <point x="958.303" y="418.581"/>
      <point x="897.3" y="439.8" type="qcurve" smooth="yes"/>
      <point x="876.6" y="447"/>
      <point x="856.8" y="447" type="qcurve" smooth="yes"/>
      <point x="805.59" y="447"/>
      <point x="773.1" y="401.4" type="qcurve" smooth="yes"/>
      <point x="735.6" y="348.768"/>
      <point x="735.6" y="242.4" type="qcurve" smooth="yes"/>
      <point x="735.6" y="80.0462"/>
      <point x="811.5" y="29.0996" type="qcurve" smooth="yes"/>
      <point x="833.4" y="14.4004"/>
      <point x="857.4" y="14.4004" type="qcurve" smooth="yes"/>
      <point x="897.533" y="14.4004"/>
      <point x="933" y="54.2998" type="qcurve" smooth="yes"/>
      <point x="966.527" y="92.0189"/>
      <point x="987.6" y="160.2" type="qcurve"/>
      <point x="1068.6" y="117.6" type="line"/>
      <point x="1036.25" y="17.2024"/>
      <point x="976.8" y="-33" type="qcurve" smooth="yes"/>
      <point x="926.352" y="-75.5996"/>
      <point x="863.4" y="-75.5996" type="qcurve" smooth="yes"/>
      <point x="769.984" y="-75.5996"/>
      <point x="706.2" y="13.2002" type="qcurve" smooth="yes"/>
      <point x="640.2" y="105.08"/>
      <point x="640.2" y="252" type="qcurve" smooth="yes"/>
      <point x="640.2" y="392.746"/>
      <point x="699.9" y="469.5" type="qcurve" smooth="yes"/>
      <point x="753.8" y="538.8"/>
      <point x="835.8" y="538.8" type="qcurve" smooth="yes"/>
      <point x="891" y="538.8"/>
      <point x="942.6" y="505.8" type="qcurve"/>
      <point x="945.6" y="507.6" type="line"/>
      <point x="945.6" y="583.581"/>
      <point x="866.811" y="691.452"/>
      <point x="804.6" y="717.3" type="qcurve" smooth="yes"/>
      <point x="762" y="735"/>
      <point x="711.6" y="735" type="qcurve" smooth="yes"/>
      <point x="598.585" y="735"/>
      <point x="526.8" y="647.4" type="qcurve" smooth="yes"/>
      <point x="450.6" y="554.408"/>
      <point x="450.6" y="394.8" type="qcurve" smooth="yes"/>
      <point x="450.6" y="240.076"/>
      <point x="514.5" y="68.4004" type="qcurve" smooth="yes"/>
      <point x="534.6" y="14.4004"/>
      <point x="559.2" y="-33" type="qcurve"/>
      <point x="559.2" y="-35.4004" type="line"/>
      <point x="486" y="-93" type="line"/>
      <point x="391.59" y="59.1043"/>
      <point x="362.1" y="275.7" type="qcurve" smooth="yes"/>
      <point x="353.4" y="339.6"/>
      <point x="353.4" y="395.4" type="qcurve" smooth="yes"/>
      <point x="353.4" y="540.832"/>
      <point x="461.296" y="747.927"/>
      <point x="560.4" y="794.7" type="qcurve" smooth="yes"/>
      <point x="624.6" y="825"/>
      <point x="701.4" y="825" type="qcurve" smooth="yes"/>
      <point x="841.059" y="825"/>
      <point x="935.7" y="732.9" type="qcurve" smooth="yes"/>
      <point x="1032" y="639.186"/>
    </contour>
  </outline>
</glyph>
<glyph name="uni1C6E" format="2">
  <advance width="1204"/>
  <unicode hex="1C6E"/>
  <outline>
    <contour>
      <point x="407" y="72" type="line"/>
      <point x="497.949" y="-4.2002"/>
      <point x="611" y="-4.2002" type="qcurve" smooth="yes"/>
      <point x="664.846" y="-4.2002"/>
      <point x="757.544" y="30.703"/>
      <point x="820.687" y="81.9763"/>
      <point x="851" y="119.4" type="qcurve"/>
      <point x="854.6" y="119.4" type="line"/>
      <point x="924.2" y="64.2002" type="line"/>
      <point x="841.523" y="-47.8757"/>
      <point x="702.5" y="-80.0996" type="qcurve" smooth="yes"/>
      <point x="657.2" y="-90.5996"/>
      <point x="608.6" y="-90.5996" type="qcurve" smooth="yes"/>
      <point x="412.4" y="-90.5996"/>
      <point x="285.8" y="81" type="qcurve"/>
      <point x="794" y="670.8" type="line"/>
      <point x="704.457" y="739.2"/>
      <point x="596.6" y="739.2" type="qcurve" smooth="yes"/>
      <point x="522.2" y="739.2"/>
      <point x="404.6" y="671.4"/>
      <point x="353" y="603" type="qcurve"/>
      <point x="350" y="603" type="line"/>
      <point x="279.8" y="659.4" type="line"/>
      <point x="396.014" y="825.6"/>
      <point x="598.4" y="825.6" type="qcurve" smooth="yes"/>
      <point x="791.749" y="825.6"/>
      <point x="918.2" y="666" type="qcurve"/>
    </contour>
  </outline>
</glyph>
<glyph name="uni1C6F" format="2">
  <advance width="1407"/>
  <unicode hex="1C6F"/>
  <outline>
    <contour>
      <point x="450.6" y="649.2" type="line"/>
      <point x="427.707" y="630.122"/>
      <point x="396.6" y="597.6" type="qcurve"/>
      <point x="393.6" y="597.6" type="line"/>
      <point x="329.4" y="653.4" type="line"/>
      <point x="419.828" y="775.202"/>
      <point x="595.5" y="813.6" type="qcurve" smooth="yes"/>
      <point x="650.4" y="825.6"/>
      <point x="706.8" y="825.6" type="qcurve" smooth="yes"/>
      <point x="921.14" y="825.6"/>
      <point x="1067.4" y="660" type="qcurve"/>
      <point x="953.4" y="516" type="line"/>
      <point x="953.4" y="87.5996" type="line"/>
      <point x="957" y="87" type="line"/>
      <point x="984.527" y="107.644"/>
      <point x="1010.4" y="137.4" type="qcurve"/>
      <point x="1014" y="137.4" type="line"/>
      <point x="1077.6" y="81.5996" type="line"/>
      <point x="1034.36" y="22.151"/>
      <point x="897.378" y="-59.9597"/>
      <point x="812.1" y="-78.5996" type="qcurve" smooth="yes"/>
      <point x="757.2" y="-90.5996"/>
      <point x="700.8" y="-90.5996" type="qcurve" smooth="yes"/>
      <point x="485.33" y="-90.5996"/>
      <point x="339.6" y="74.4004" type="qcurve"/>
      <point x="453.6" y="216" type="line"/>
      <point x="453.6" y="648" type="line"/>
    </contour>
    <contour>
      <point x="458.4" y="75.5996" type="line"/>
      <point x="569.245" y="-6.59961"/>
      <point x="700.2" y="-6.59961" type="qcurve" smooth="yes"/>
      <point x="784.012" y="-6.59961"/>
      <point x="865.8" y="28.7998" type="qcurve"/>
      <point x="865.8" y="553.2" type="line"/>
      <point x="948.6" y="660" type="line"/>
      <point x="838.127" y="741.6"/>
      <point x="706.8" y="741.6" type="qcurve" smooth="yes"/>
      <point x="621.766" y="741.6"/>
      <point x="541.2" y="706.2" type="qcurve"/>
      <point x="541.2" y="178.2" type="line"/>
    </contour>
  </outline>
</glyph>
<glyph name="uni1C70" format="2">
  <advance width="1635"/>
  <unicode hex="1C70"/>
  <outline>
    <contour>
      <point x="832.2" y="804.2" type="line" smooth="yes"/>
      <point x="895.219" y="804.2"/>
      <point x="1008.51" y="772.25"/>
      <point x="1093.8" y="719.584"/>
      <point x="1128" y="683.3" type="qcurve" smooth="yes"/>
      <point x="1242" y="562.334"/>
      <point x="1242" y="372.2" type="qcurve" smooth="yes"/>
      <point x="1242" y="163.359"/>
      <point x="1115.4" y="7.40039" type="qcurve" smooth="yes"/>
      <point x="1074" y="-43.5996"/>
      <point x="1020" y="-80.7998" type="qcurve"/>
      <point x="970.2" y="-11.7998" type="line"/>
      <point x="970.2" y="-8.7998" type="line"/>
      <point x="1104.23" y="101.17"/>
      <point x="1137.6" y="265.1" type="qcurve" smooth="yes"/>
      <point x="1147.8" y="315.2"/>
      <point x="1147.8" y="365.6" type="qcurve" smooth="yes"/>
      <point x="1147.8" y="477.822"/>
      <point x="1058.98" y="640.007"/>
      <point x="981" y="682.1" type="qcurve" smooth="yes"/>
      <point x="928.2" y="710.6"/>
      <point x="861.6" y="716.6" type="qcurve"/>
      <point x="861.6" y="-68.7998" type="line"/>
      <point x="796.8" y="-68.7998" type="line" smooth="yes"/>
      <point x="618.744" y="-68.7998"/>
      <point x="505.2" y="52.4004" type="qcurve" smooth="yes"/>
      <point x="393" y="172.164"/>
      <point x="393" y="362.6" type="qcurve" smooth="yes"/>
      <point x="393" y="571.259"/>
      <point x="518.7" y="726.8" type="qcurve" smooth="yes"/>
      <point x="560.4" y="778.4"/>
      <point x="615" y="816.8" type="qcurve"/>
      <point x="664.8" y="747.2" type="line"/>
      <point x="664.8" y="744.8" type="line"/>
      <point x="529.574" y="631.547"/>
      <point x="497.1" y="468.2" type="qcurve" smooth="yes"/>
      <point x="487.2" y="418.4"/>
      <point x="487.2" y="369.2" type="qcurve" smooth="yes"/>
      <point x="487.2" y="257.26"/>
      <point x="573.406" y="96.1594"/>
      <point x="650.1" y="53.5996" type="qcurve" smooth="yes"/>
      <point x="702" y="24.7998"/>
      <point x="767.4" y="18.7998" type="qcurve"/>
      <point x="767.4" y="804.2" type="line"/>
    </contour>
  </outline>
</glyph>
<glyph name="uni1C71" format="2">
  <advance width="1331"/>
  <unicode hex="1C71"/>
  <outline>
    <contour>
      <point x="697.4" y="-4.2002" type="qcurve" smooth="yes"/>
      <point x="776.762" y="-4.2002"/>
      <point x="893.59" y="61.5317"/>
      <point x="942.2" y="119.4" type="qcurve"/>
      <point x="945.2" y="119.4" type="line"/>
      <point x="1014.8" y="64.2002" type="line"/>
      <point x="930.4" y="-47.725"/>
      <point x="789.8" y="-80.0996" type="qcurve" smooth="yes"/>
      <point x="744.2" y="-90.5996"/>
      <point x="695.6" y="-90.5996" type="qcurve" smooth="yes"/>
      <point x="500" y="-90.5996"/>
      <point x="377" y="81" type="qcurve"/>
      <point x="442.4" y="163.8" type="line"/>
      <point x="442.4" y="649.8" type="line"/>
      <point x="440" y="651" type="line"/>
      <point x="417.024" y="633.538"/>
      <point x="385.4" y="597.6" type="qcurve"/>
      <point x="382.4" y="597.6" type="line"/>
      <point x="318.2" y="653.4" type="line"/>
      <point x="404.738" y="774.919"/>
      <point x="575.9" y="813.6" type="qcurve" smooth="yes"/>
      <point x="629" y="825.6"/>
      <point x="683.6" y="825.6" type="qcurve" smooth="yes"/>
      <point x="892.585" y="825.6"/>
      <point x="1032.8" y="660" type="qcurve"/>
      <point x="977" y="601.2" type="line"/>
      <point x="973.4" y="601.2" type="line"/>
      <point x="955.4" y="621"/>
      <point x="935.6" y="639" type="qcurve"/>
      <point x="491.6" y="76.2002" type="line"/>
      <point x="581" y="-4.2002"/>
    </contour>
    <contour>
      <point x="683.6" y="741.6" type="qcurve" smooth="yes"/>
      <point x="608.69" y="741.6"/>
      <point x="530" y="708.6" type="qcurve"/>
      <point x="530" y="273.6" type="line"/>
      <point x="532.4" y="272.4" type="line"/>
      <point x="861.8" y="695.4" type="line"/>
      <point x="770.723" y="741.6"/>
    </contour>
  </outline>
</glyph>
<glyph name="uni1C72" format="2">
  <advance width="1331"/>
  <unicode hex="1C72"/>
  <outline>
    <contour>
      <point x="633.6" y="739.2" type="qcurve" smooth="yes"/>
      <point x="579.161" y="739.2"/>
      <point x="484.789" y="704.18"/>
      <point x="420.223" y="653.007"/>
      <point x="388.8" y="615.6" type="qcurve"/>
      <point x="385.8" y="615.6" type="line"/>
      <point x="316.2" y="670.8" type="line"/>
      <point x="400.6" y="782.725"/>
      <point x="541.2" y="815.1" type="qcurve" smooth="yes"/>
      <point x="586.8" y="825.6"/>
      <point x="635.4" y="825.6" type="qcurve" smooth="yes"/>
      <point x="831" y="825.6"/>
      <point x="954" y="654" type="qcurve"/>
      <point x="888.6" y="571.2" type="line"/>
      <point x="888.6" y="85.2002" type="line"/>
      <point x="891" y="84" type="line"/>
      <point x="913.976" y="101.462"/>
      <point x="945.6" y="137.4" type="qcurve"/>
      <point x="948.6" y="137.4" type="line"/>
      <point x="1012.8" y="81.5996" type="line"/>
      <point x="926.262" y="-39.9192"/>
      <point x="755.1" y="-78.5996" type="qcurve" smooth="yes"/>
      <point x="702" y="-90.5996"/>
      <point x="647.4" y="-90.5996" type="qcurve" smooth="yes"/>
      <point x="438.415" y="-90.5996"/>
      <point x="298.2" y="75" type="qcurve"/>
      <point x="354" y="133.8" type="line"/>
      <point x="357.6" y="133.8" type="line"/>
      <point x="375.6" y="114"/>
      <point x="395.4" y="96" type="qcurve"/>
      <point x="839.4" y="658.8" type="line"/>
      <point x="750" y="739.2"/>
    </contour>
    <contour>
      <point x="647.4" y="-6.59961" type="qcurve" smooth="yes"/>
      <point x="722.31" y="-6.59961"/>
      <point x="801" y="26.4004" type="qcurve"/>
      <point x="801" y="461.4" type="line"/>
      <point x="798.6" y="462.6" type="line"/>
      <point x="469.2" y="39.5996" type="line"/>
      <point x="560.277" y="-6.59961"/>
    </contour>
  </outline>
</glyph>
<glyph name="uni1C73" format="2">
  <advance width="1397"/>
  <unicode hex="1C73"/>
  <outline>
    <contour>
      <point x="921.2" y="183" type="line"/>
      <point x="879.46" y="143.4"/>
      <point x="811.4" y="143.4" type="qcurve" smooth="yes"/>
      <point x="737.826" y="143.4"/>
      <point x="632.579" y="215.6"/>
      <point x="607.1" y="273.9" type="qcurve" smooth="yes"/>
      <point x="589.4" y="314.4"/>
      <point x="589.4" y="363" type="qcurve" smooth="yes"/>
      <point x="589.4" y="412.076"/>
      <point x="623.749" y="493.253"/>
      <point x="679.836" y="546.437"/>
      <point x="717.2" y="562.2" type="qcurve" smooth="yes"/>
      <point x="755.6" y="578.4"/>
      <point x="800" y="578.4" type="qcurve" smooth="yes"/>
      <point x="882.2" y="578.4"/>
      <point x="933.8" y="522" type="qcurve"/>
      <point x="936.8" y="523.8" type="line"/>
      <point x="886.064" y="676.006"/>
      <point x="767" y="721.8" type="qcurve" smooth="yes"/>
      <point x="728" y="736.8"/>
      <point x="684.8" y="736.8" type="qcurve" smooth="yes"/>
      <point x="598.535" y="736.8"/>
      <point x="529.1" y="678" type="qcurve" smooth="yes"/>
      <point x="460.679" y="620.057"/>
      <point x="428" y="519.6" type="qcurve"/>
      <point x="425" y="518.4" type="line"/>
      <point x="334.4" y="550.8" type="line"/>
      <point x="364.443" y="642.699"/>
      <point x="483.714" y="775.855"/>
      <point x="568.4" y="806.1" type="qcurve" smooth="yes"/>
      <point x="623" y="825.6"/>
      <point x="684.2" y="825.6" type="qcurve" smooth="yes"/>
      <point x="846.816" y="825.6"/>
      <point x="950" y="696.3" type="qcurve" smooth="yes"/>
      <point x="1052.6" y="567.734"/>
      <point x="1052.6" y="171.267"/>
      <point x="950" y="40.7998" type="qcurve" smooth="yes"/>
      <point x="846.667" y="-90.5996"/>
      <point x="684.2" y="-90.5996" type="qcurve" smooth="yes"/>
      <point x="565.287" y="-90.5996"/>
      <point x="472.1" y="-16.7998" type="qcurve" smooth="yes"/>
      <point x="379.3" y="56.6928"/>
      <point x="337.4" y="178.8" type="qcurve"/>
      <point x="424.4" y="219.6" type="line"/>
      <point x="427.4" y="218.4" type="line"/>
      <point x="451.004" y="145.837"/>
      <point x="539.123" y="38.6408"/>
      <point x="601.7" y="13.7998" type="qcurve" smooth="yes"/>
      <point x="641" y="-1.7998"/>
      <point x="684.8" y="-1.7998" type="qcurve" smooth="yes"/>
      <point x="802.601" y="-1.7998"/>
      <point x="881.3" y="104.4" type="qcurve" smooth="yes"/>
      <point x="906.2" y="138"/>
      <point x="924.2" y="180.6" type="qcurve"/>
    </contour>
    <contour>
      <point x="816.2" y="229.2" type="qcurve" smooth="yes"/>
      <point x="847.703" y="229.2"/>
      <point x="900.738" y="250.698"/>
      <point x="936.202" y="286.204"/>
      <point x="956.6" y="333"/>
      <point x="956.6" y="358.2" type="qcurve" smooth="yes"/>
      <point x="956.6" y="402.341"/>
      <point x="907.439" y="467.087"/>
      <point x="870.5" y="483.6" type="qcurve" smooth="yes"/>
      <point x="845" y="495"/>
      <point x="816.2" y="495" type="qcurve" smooth="yes"/>
      <point x="786.234" y="495"/>
      <point x="735.386" y="472.568"/>
      <point x="701.855" y="437.055"/>
      <point x="691.7" y="414" type="qcurve" smooth="yes"/>
      <point x="680.6" y="388.8"/>
      <point x="680.6" y="358.2" type="qcurve" smooth="yes"/>
      <point x="680.6" y="327.853"/>
      <point x="702.322" y="278.78"/>
      <point x="737.949" y="247.445"/>
      <point x="761.9" y="238.5" type="qcurve" smooth="yes"/>
      <point x="786.8" y="229.2"/>
    </contour>
  </outline>
</glyph>
<glyph name="uni1C74" format="2">
  <advance width="1310"/>
  <unicode hex="1C74"/>
  <outline>
    <contour>
      <point x="891.8" y="393.6" type="qcurve" smooth="yes"/>
      <point x="891.8" y="614.964"/>
      <point x="737.6" y="706.2" type="qcurve"/>
      <point x="734.6" y="706.2" type="line"/>
      <point x="452" y="497.4" type="line"/>
      <point x="452" y="-71.4004" type="line"/>
      <point x="356" y="-71.4004" type="line"/>
      <point x="356" y="801.6" type="line"/>
      <point x="452" y="801.6" type="line"/>
      <point x="452" y="613.2" type="line"/>
      <point x="455.6" y="613.2" type="line"/>
      <point x="729.2" y="818.4" type="line"/>
      <point x="732.8" y="818.4" type="line"/>
      <point x="792.238" y="787.863"/>
      <point x="882.185" y="712.345"/>
      <point x="952.435" y="610.125"/>
      <point x="989" y="474.462"/>
      <point x="989" y="391.8" type="qcurve" smooth="yes"/>
      <point x="989" y="191.871"/>
      <point x="896.6" y="9" type="qcurve" smooth="yes"/>
      <point x="867.8" y="-48"/>
      <point x="833" y="-95.4004" type="qcurve"/>
      <point x="759.8" y="-37.7998" type="line"/>
      <point x="759.8" y="-35.4004" type="line"/>
      <point x="855.332" y="110.605"/>
      <point x="883.1" y="286.8" type="qcurve" smooth="yes"/>
      <point x="891.8" y="342"/>
    </contour>
  </outline>
</glyph>
<glyph name="uni1C75" format="2">
  <advance width="1635"/>
  <unicode hex="1C75"/>
  <outline>
    <contour>
      <point x="867.6" y="804.2" type="line"/>
      <point x="867.6" y="18.7998" type="line"/>
      <point x="967.389" y="27.9548"/>
      <point x="1099.92" y="144.582"/>
      <point x="1128.6" y="236" type="qcurve" smooth="yes"/>
      <point x="1147.8" y="297.2"/>
      <point x="1147.8" y="369.2" type="qcurve" smooth="yes"/>
      <point x="1147.8" y="529.874"/>
      <point x="1051.8" y="659.3" type="qcurve" smooth="yes"/>
      <point x="1018.2" y="704.6"/>
      <point x="970.2" y="744.8" type="qcurve"/>
      <point x="970.2" y="747.2" type="line"/>
      <point x="1020" y="816.8" type="line"/>
      <point x="1097.87" y="762.032"/>
      <point x="1205.04" y="595.884"/>
      <point x="1227.9" y="491.3" type="qcurve" smooth="yes"/>
      <point x="1242" y="426.8"/>
      <point x="1242" y="362.6" type="qcurve" smooth="yes"/>
      <point x="1242" y="172.164"/>
      <point x="1129.8" y="52.4004" type="qcurve" smooth="yes"/>
      <point x="1016.26" y="-68.7998"/>
      <point x="838.2" y="-68.7998" type="qcurve" smooth="yes"/>
      <point x="773.4" y="-68.7998" type="line"/>
      <point x="773.4" y="716.6" type="line"/>
      <point x="671.677" y="707.435"/>
      <point x="536.634" y="591.145"/>
      <point x="507" y="499.1" type="qcurve" smooth="yes"/>
      <point x="487.2" y="437.6"/>
      <point x="487.2" y="365.6" type="qcurve" smooth="yes"/>
      <point x="487.2" y="203.609"/>
      <point x="584.4" y="74.2998" type="qcurve" smooth="yes"/>
      <point x="618" y="29.5996"/>
      <point x="664.8" y="-8.7998" type="qcurve"/>
      <point x="664.8" y="-11.7998" type="line"/>
      <point x="615" y="-80.7998" type="line"/>
      <point x="563.661" y="-45.4325"/>
      <point x="481.481" y="51.6496"/>
      <point x="422.733" y="172.98"/>
      <point x="407.4" y="242.3" type="qcurve" smooth="yes"/>
      <point x="393" y="307.4"/>
      <point x="393" y="372.2" type="qcurve" smooth="yes"/>
      <point x="393" y="562.334"/>
      <point x="620.938" y="804.2"/>
      <point x="802.8" y="804.2" type="qcurve" smooth="yes"/>
    </contour>
  </outline>
</glyph>
<glyph name="uni1C76" format="2">
  <advance width="1392"/>
  <unicode hex="1C76"/>
  <outline>
    <contour>
      <point x="884" y="677" type="qcurve" smooth="yes"/>
      <point x="884" y="707.661"/>
      <point x="924.827" y="748.4"/>
      <point x="955.4" y="748.4" type="qcurve" smooth="yes"/>
      <point x="985.718" y="748.4"/>
      <point x="1026.8" y="707.246"/>
      <point x="1026.8" y="677" type="qcurve" smooth="yes"/>
      <point x="1026.8" y="630.787"/>
      <point x="982.7" y="611.3" type="qcurve" smooth="yes"/>
      <point x="969.8" y="605.6"/>
      <point x="954.8" y="605.6" type="qcurve" smooth="yes"/>
      <point x="924.538" y="605.6"/>
      <point x="884" y="646.673"/>
    </contour>
    <contour>
      <point x="946.4" y="334.4" type="qcurve" smooth="yes"/>
      <point x="946.4" y="370.51"/>
      <point x="938.6" y="468.8" type="qcurve"/>
      <point x="940.4" y="471.2" type="line"/>
      <point x="1032.2" y="486.8" type="line"/>
      <point x="1043.6" y="401.928"/>
      <point x="1043.6" y="333.8" type="qcurve" smooth="yes"/>
      <point x="1043.6" y="188.368"/>
      <point x="935.704" y="-18.7267"/>
      <point x="836.6" y="-65.5" type="qcurve" smooth="yes"/>
      <point x="772.4" y="-95.7998"/>
      <point x="695.6" y="-95.7998" type="qcurve" smooth="yes"/>
      <point x="555.941" y="-95.7998"/>
      <point x="461.3" y="-3.7002" type="qcurve" smooth="yes"/>
      <point x="365" y="90.014"/>
      <point x="365" y="233" type="qcurve" smooth="yes"/>
      <point x="365" y="299.471"/>
      <point x="385.4" y="368.6" type="qcurve"/>
      <point x="389" y="368.6" type="line"/>
      <point x="436.299" y="311.45"/>
      <point x="499.7" y="289.4" type="qcurve" smooth="yes"/>
      <point x="520.4" y="282.2"/>
      <point x="540.2" y="282.2" type="qcurve" smooth="yes"/>
      <point x="622.797" y="282.2"/>
      <point x="651.2" y="390.8" type="qcurve" smooth="yes"/>
      <point x="661.4" y="429.8"/>
      <point x="661.4" y="486.8" type="qcurve" smooth="yes"/>
      <point x="661.4" y="649.156"/>
      <point x="585.5" y="700.1" type="qcurve" smooth="yes"/>
      <point x="563.6" y="714.8"/>
      <point x="539.6" y="714.8" type="qcurve" smooth="yes"/>
      <point x="499.467" y="714.8"/>
      <point x="428.631" y="635.11"/>
      <point x="409.4" y="569" type="qcurve"/>
      <point x="328.4" y="611.6" type="line"/>
      <point x="360.75" y="711.998"/>
      <point x="420.2" y="762.2" type="qcurve" smooth="yes"/>
      <point x="470.648" y="804.8"/>
      <point x="533.6" y="804.8" type="qcurve" smooth="yes"/>
      <point x="627.014" y="804.8"/>
      <point x="690.8" y="716" type="qcurve" smooth="yes"/>
      <point x="756.8" y="624.12"/>
      <point x="756.8" y="477.2" type="qcurve" smooth="yes"/>
      <point x="756.8" y="336.455"/>
      <point x="697.1" y="259.7" type="qcurve" smooth="yes"/>
      <point x="643.201" y="190.4"/>
      <point x="561.2" y="190.4" type="qcurve" smooth="yes"/>
      <point x="506" y="190.4"/>
      <point x="454.4" y="223.4" type="qcurve"/>
      <point x="451.4" y="221.6" type="line"/>
      <point x="451.4" y="145.619"/>
      <point x="530.19" y="37.7469"/>
      <point x="592.4" y="11.9004" type="qcurve" smooth="yes"/>
      <point x="635" y="-5.7998"/>
      <point x="685.4" y="-5.7998" type="qcurve" smooth="yes"/>
      <point x="798.417" y="-5.7998"/>
      <point x="870.2" y="81.7998" type="qcurve" smooth="yes"/>
      <point x="946.4" y="174.792"/>
    </contour>
  </outline>
</glyph>
<glyph name="uni1C77" format="2">
  <advance width="1498"/>
  <unicode hex="1C77"/>
  <outline>
    <contour>
      <point x="1030.4" y="301" type="qcurve"/>
      <point x="991.898" y="294.4"/>
      <point x="950" y="294.4" type="qcurve" smooth="yes"/>
      <point x="833.572" y="294.4"/>
      <point x="650.939" y="374.837"/>
      <point x="594.8" y="444.4" type="qcurve" smooth="yes"/>
      <point x="536.6" y="516.517"/>
      <point x="536.6" y="602.8" type="qcurve" smooth="yes"/>
      <point x="536.6" y="652.956"/>
      <point x="572.404" y="736.852"/>
      <point x="630.665" y="792.346"/>
      <point x="669.2" y="808.9" type="qcurve" smooth="yes"/>
      <point x="711.8" y="827.2"/>
      <point x="765.8" y="827.2" type="qcurve" smooth="yes"/>
      <point x="917.6" y="827.2"/>
      <point x="1022" y="688" type="qcurve" smooth="yes"/>
      <point x="1070.08" y="623.887"/>
      <point x="1126.4" y="447.783"/>
      <point x="1126.4" y="346.6" type="qcurve" smooth="yes"/>
      <point x="1126.4" y="137.861"/>
      <point x="1008.8" y="-0.799805" type="qcurve" smooth="yes"/>
      <point x="968.6" y="-48.2002"/>
      <point x="913.4" y="-84.2002" type="qcurve"/>
      <point x="909.8" y="-84.2002" type="line"/>
      <point x="741.8" y="80.2002" type="line"/>
      <point x="738.2" y="80.2002" type="line"/>
      <point x="593.6" y="-84.2002" type="line"/>
      <point x="590" y="-84.2002" type="line"/>
      <point x="471.8" y="-28.4004"/>
      <point x="356.6" y="136.6"/>
      <point x="356.6" y="250.6" type="qcurve" smooth="yes"/>
      <point x="356.6" y="339.324"/>
      <point x="396.2" y="460.6" type="qcurve"/>
      <point x="480.8" y="421" type="line"/>
      <point x="480.8" y="418" type="line"/>
      <point x="451.4" y="332.062"/>
      <point x="451.4" y="254.2" type="qcurve" smooth="yes"/>
      <point x="451.4" y="175.291"/>
      <point x="513.008" y="59.2007"/>
      <point x="567.2" y="35.7998" type="qcurve"/>
      <point x="570.8" y="35.7998" type="line"/>
      <point x="732.2" y="214.6" type="line"/>
      <point x="735.8" y="214.6" type="line"/>
      <point x="915.2" y="35.7998" type="line"/>
      <point x="918.8" y="35.7998" type="line"/>
      <point x="967.04" y="74.1451"/>
      <point x="1022.82" y="213.835"/>
    </contour>
    <contour>
      <point x="952.4" y="383.8" type="qcurve" smooth="yes"/>
      <point x="993.199" y="383.8"/>
      <point x="1030.4" y="389.8" type="qcurve"/>
      <point x="1018.51" y="538.398"/>
      <point x="942.5" y="639.1" type="qcurve" smooth="yes"/>
      <point x="867.545" y="738.4"/>
      <point x="771.8" y="738.4" type="qcurve" smooth="yes"/>
      <point x="739.37" y="738.4"/>
      <point x="686.217" y="715.225"/>
      <point x="651.802" y="677.52"/>
      <point x="641.6" y="652.3" type="qcurve" smooth="yes"/>
      <point x="630.8" y="625.6"/>
      <point x="630.8" y="593.2" type="qcurve" smooth="yes"/>
      <point x="630.8" y="501.469"/>
      <point x="813.697" y="383.8"/>
    </contour>
  </outline>
</glyph>
<glyph name="uni1C78" format="2">
  <advance width="468"/>
  <unicode hex="1C78"/>
  <outline>
    <contour>
      <point x="162.6" y="941" type="qcurve" smooth="yes"/>
      <point x="162.6" y="971.661"/>
      <point x="203.426" y="1012.4"/>
      <point x="234" y="1012.4" type="qcurve" smooth="yes"/>
      <point x="264.318" y="1012.4"/>
      <point x="305.4" y="971.246"/>
      <point x="305.4" y="941" type="qcurve" smooth="yes"/>
      <point x="305.4" y="894.786"/>
      <point x="261.3" y="875.3" type="qcurve" smooth="yes"/>
      <point x="248.4" y="869.6"/>
      <point x="233.4" y="869.6" type="qcurve" smooth="yes"/>
      <point x="213.492" y="869.6"/>
      <point x="180.982" y="888.369"/>
      <point x="162.6" y="921.094"/>
    </contour>
  </outline>
</glyph>
<glyph name="uni1C79" format="2">
  <advance width="468"/>
  <unicode hex="1C79"/>
  <outline>
    <contour>
      <point x="162.6" y="-216.8" type="qcurve" smooth="yes"/>
      <point x="162.6" y="-196.459"/>
      <point x="181.076" y="-163.484"/>
      <point x="213.79" y="-144.8"/>
      <point x="234" y="-144.8" type="qcurve" smooth="yes"/>
      <point x="264.361" y="-144.8"/>
      <point x="305.4" y="-186.365"/>
      <point x="305.4" y="-216.8" type="qcurve" smooth="yes"/>
      <point x="305.4" y="-263.014"/>
      <point x="261.3" y="-282.5" type="qcurve" smooth="yes"/>
      <point x="248.4" y="-288.2"/>
      <point x="234" y="-288.2" type="qcurve" smooth="yes"/>
      <point x="203.339" y="-288.2"/>
      <point x="162.6" y="-247.373"/>
    </contour>
  </outline>
</glyph>
<glyph name="uni1C7A" format="2">
  <advance width="488"/>
  <unicode hex="1C7A"/>
  <outline>
    <contour>
      <point x="172.6" y="709.4" type="qcurve" smooth="yes"/>
      <point x="172.6" y="740.062"/>
      <point x="213.426" y="780.8"/>
      <point x="244" y="780.8" type="qcurve" smooth="yes"/>
      <point x="274.318" y="780.8"/>
      <point x="315.4" y="739.646"/>
      <point x="315.4" y="709.4" type="qcurve" smooth="yes"/>
      <point x="315.4" y="663.187"/>
      <point x="271.3" y="643.7" type="qcurve" smooth="yes"/>
      <point x="258.4" y="638"/>
      <point x="243.4" y="638" type="qcurve" smooth="yes"/>
      <point x="223.492" y="638"/>
      <point x="190.982" y="656.769"/>
      <point x="172.6" y="689.494"/>
    </contour>
    <contour>
      <point x="172.6" y="14.5996" type="qcurve" smooth="yes"/>
      <point x="172.6" y="34.9405"/>
      <point x="191.075" y="67.9154"/>
      <point x="223.789" y="86.5996"/>
      <point x="244" y="86.5996" type="qcurve" smooth="yes"/>
      <point x="274.361" y="86.5996"/>
      <point x="315.4" y="45.0349"/>
      <point x="315.4" y="14.5996" type="qcurve" smooth="yes"/>
      <point x="315.4" y="-31.6166"/>
      <point x="271.3" y="-51.0996" type="qcurve" smooth="yes"/>
      <point x="258.4" y="-56.7998"/>
      <point x="244" y="-56.7998" type="qcurve" smooth="yes"/>
      <point x="213.339" y="-56.7998"/>
      <point x="172.6" y="-15.9739"/>
    </contour>
  </outline>
</glyph>
<glyph name="uni1C7B" format="2">
  <advance width="764"/>
  <unicode hex="1C7B"/>
  <outline>
    <contour>
      <point x="302.2" y="537.6" type="qcurve" smooth="yes"/>
      <point x="282.915" y="537.6"/>
      <point x="255.888" y="521.207"/>
      <point x="245.326" y="505.242"/>
      <point x="235.6" y="486.6" type="qcurve"/>
      <point x="232" y="486.6" type="line"/>
      <point x="185.8" y="528" type="line"/>
      <point x="204.62" y="572.573"/>
      <point x="253.423" y="622.2"/>
      <point x="297.4" y="622.2" type="qcurve" smooth="yes"/>
      <point x="329.032" y="622.2"/>
      <point x="396.1" y="601.5" type="qcurve" smooth="yes"/>
      <point x="401.632" y="599.793"/>
      <point x="421.731" y="592.976"/>
      <point x="436.23" y="588.386"/>
      <point x="454.607" y="583.389"/>
      <point x="472.229" y="580.8"/>
      <point x="480.4" y="580.8" type="qcurve" smooth="yes"/>
      <point x="501.398" y="580.8"/>
      <point x="526.972" y="601.709"/>
      <point x="540.4" y="623.4" type="qcurve"/>
      <point x="544" y="623.4" type="line"/>
      <point x="578.2" y="568.8" type="line"/>
      <point x="556" y="527.4"/>
      <point x="508" y="496.8"/>
      <point x="482.8" y="496.8" type="qcurve" smooth="yes"/>
      <point x="457.004" y="496.8"/>
      <point x="334.602" y="537.6"/>
    </contour>
  </outline>
</glyph>
<glyph name="uni1C7C" format="2">
  <advance width="631"/>
  <unicode hex="1C7C"/>
  <outline>
    <contour>
      <point x="183.2" y="602.2" type="line"/>
      <point x="447.8" y="602.2" type="line"/>
      <point x="447.8" y="515.8" type="line"/>
      <point x="183.2" y="515.8" type="line"/>
    </contour>
  </outline>
</glyph>
<glyph name="uni1C7D" format="2">
  <advance width="1071"/>
  <unicode hex="1C7D"/>
  <outline>
    <contour>
      <point x="782.8" y="355" type="qcurve" smooth="yes"/>
      <point x="782.8" y="57.2366"/>
      <point x="563.8" y="-84.2002" type="qcurve"/>
      <point x="560.2" y="-84.2002" type="line"/>
      <point x="303.4" y="185.8" type="line"/>
      <point x="362.8" y="252.4" type="line"/>
      <point x="366.4" y="252.4" type="line"/>
      <point x="565.6" y="36.4004" type="line"/>
      <point x="569.2" y="36.4004" type="line"/>
      <point x="616.431" y="73.3369"/>
      <point x="675.563" y="204.006"/>
      <point x="685" y="285.4" type="qcurve"/>
      <point x="655" y="283"/>
      <point x="634" y="283" type="qcurve" smooth="yes"/>
      <point x="481.179" y="283"/>
      <point x="371.5" y="382" type="qcurve" smooth="yes"/>
      <point x="303.104" y="443.736"/>
      <point x="276.4" y="528.1" type="qcurve" smooth="yes"/>
      <point x="263.2" y="569.8"/>
      <point x="263.2" y="614.2" type="qcurve" smooth="yes"/>
      <point x="263.2" y="687.427"/>
      <point x="329.81" y="789.462"/>
      <point x="386.2" y="812.2" type="qcurve" smooth="yes"/>
      <point x="423.4" y="827.2"/>
      <point x="467.2" y="827.2" type="qcurve" smooth="yes"/>
      <point x="558.032" y="827.2"/>
      <point x="631.3" y="762.7" type="qcurve" smooth="yes"/>
      <point x="739.832" y="667.155"/>
      <point x="772.3" y="480.7" type="qcurve" smooth="yes"/>
      <point x="782.8" y="420.4"/>
    </contour>
    <contour>
      <point x="638.8" y="372.4" type="qcurve" smooth="yes"/>
      <point x="659.812" y="372.4"/>
      <point x="688.6" y="374.8" type="qcurve"/>
      <point x="683.751" y="528.787"/>
      <point x="623.5" y="632.8" type="qcurve" smooth="yes"/>
      <point x="562.329" y="738.4"/>
      <point x="473.2" y="738.4" type="qcurve" smooth="yes"/>
      <point x="418.286" y="738.4"/>
      <point x="357.4" y="664.094"/>
      <point x="357.4" y="605.2" type="qcurve" smooth="yes"/>
      <point x="357.4" y="509.894"/>
      <point x="435.1" y="442.3" type="qcurve" smooth="yes"/>
      <point x="515.453" y="372.4"/>
    </contour>
  </outline>
</glyph>
<glyph name="uni1C7E" format="2">
  <advance width="510"/>
  <unicode hex="1C7E"/>
  <outline>
    <contour>
      <point x="207" y="570" type="line"/>
      <point x="303" y="570" type="line"/>
      <point x="303" y="165" type="line"/>
      <point x="207" y="165" type="line"/>
    </contour>
  </outline>
</glyph>
<glyph name="uni1C7F" format="2">
  <advance width="884"/>
  <unicode hex="1C7F"/>
  <outline>
    <contour>
      <point x="281.8" y="570" type="line"/>
      <point x="377.8" y="570" type="line"/>
      <point x="377.8" y="165" type="line"/>
      <point x="281.8" y="165" type="line"/>
    </contour>
    <contour>
      <point x="506.2" y="570" type="line"/>
      <point x="602.2" y="570" type="line"/>
      <point x="602.2" y="165" type="line"/>
      <point x="506.2" y="165" type="line"/>
    </contour>
  </outline>
</glyph>
